<?xml version="1.0" encoding="UTF-8" standalone="no"?>
<svg width="923px" height="293px" viewBox="0 0 923 293" version="1.1" xmlns="http://www.w3.org/2000/svg" xmlns:xlink="http://www.w3.org/1999/xlink">
    <!-- Generator: Sketch 3.6.1 (26313) - http://www.bohemiancoding.com/sketch -->
    <title>ICP_4c_positive_right-aligned_new-01</title>
    <desc>Created with Sketch.</desc>
    <defs></defs>
    <g id="Page-1" stroke="none" stroke-width="1" fill="none" fill-rule="evenodd">
        <g id="ICP_4c_positive_right-aligned_new-01">
            <g id="Layer_1">
                <g id="Group" transform="translate(371.931507, 0.000000)" fill="#FFFFFF">
                    <path d="M8.3716895,78.1333333 C8.3716895,79.1913889 8.04657534,79.8425 6.66484018,79.8425 L1.86940639,79.8425 C0.812785388,79.8425 0.162557078,79.1913889 0.162557078,78.1333333 L0.162557078,2.93 C0.162557078,1.87194444 0.487671233,1.22083333 1.86940639,1.22083333 L6.66484018,1.22083333 C8.04657534,1.22083333 8.3716895,1.87194444 8.3716895,2.93 L8.3716895,78.1333333 L8.3716895,78.1333333 Z" id="Shape"></path>
                    <path d="M79.3278539,78.1333333 C79.3278539,79.1913889 79.0027397,79.8425 77.6210046,79.8425 L73.1506849,79.8425 C72.5004566,79.8425 71.7689498,79.5169444 71.4438356,79.1913889 L40.7205479,24.8236111 C38.3634703,20.3472222 36.9817352,17.6613889 36.656621,17.3358333 L36.656621,78.5402778 C36.656621,79.5983333 36.3315068,80.2494444 34.9497717,80.2494444 L30.4794521,80.2494444 C29.0977169,80.2494444 28.7726027,79.5983333 28.7726027,78.5402778 L28.7726027,3.25555556 C28.7726027,2.1975 29.0977169,1.54638889 30.4794521,1.54638889 L34.9497717,1.54638889 C35.6,1.54638889 36.0063927,1.87194444 36.3315068,2.1975 L67.7050228,57.5419444 C68.7616438,59.2511111 71.1187215,64.3786111 71.1187215,64.3786111 L71.1187215,2.84861111 C71.1187215,1.79055556 71.4438356,1.13944444 72.8255708,1.13944444 L77.2958904,1.13944444 C78.6776256,1.13944444 79.0027397,1.79055556 79.0027397,2.84861111 L79.0027397,78.1333333 L79.3278539,78.1333333 L79.3278539,78.1333333 Z" id="Shape"></path>
                    <path d="M149.958904,78.1333333 C149.958904,79.1913889 149.63379,79.8425 148.252055,79.8425 L143.863014,79.8425 C143.212785,79.8425 142.481279,79.5169444 142.156164,79.1913889 L111.432877,24.8236111 C109.075799,20.3472222 107.694064,17.6613889 107.36895,17.3358333 L107.36895,78.5402778 C107.36895,79.5983333 107.043836,80.2494444 105.6621,80.2494444 L101.923288,80.2494444 C100.541553,80.2494444 100.216438,79.5983333 100.216438,78.5402778 L100.216438,3.25555556 C100.216438,2.1975 100.541553,1.54638889 101.923288,1.54638889 L106.393607,1.54638889 C107.043836,1.54638889 107.450228,1.87194444 107.775342,2.1975 L139.148858,57.5419444 C140.205479,59.2511111 142.562557,64.3786111 142.562557,64.3786111 L142.562557,2.84861111 C142.562557,1.79055556 142.887671,1.13944444 144.269406,1.13944444 L148.739726,1.13944444 C150.121461,1.13944444 150.446575,1.79055556 150.446575,2.84861111 L150.446575,78.1333333 L149.958904,78.1333333 L149.958904,78.1333333 Z" id="Shape"></path>
                    <path d="M169.790868,17.3358333 C169.790868,8.13888889 175.968037,0.569722222 194.743379,0.569722222 C213.843836,0.569722222 220.021005,8.0575 220.021005,17.3358333 L220.021005,64.1344444 C220.021005,73.3313889 214.250228,80.9005556 194.743379,80.9005556 C175.642922,80.9005556 169.790868,73.4127778 169.790868,64.1344444 L169.790868,17.3358333 L169.790868,17.3358333 Z M211.405479,18.3125 C211.405479,11.4758333 206.610046,6.99944444 194.6621,6.99944444 C182.389041,6.99944444 177.918721,11.4758333 177.918721,18.3125 L177.918721,62.4252778 C177.918721,69.2619444 182.714155,73.7383333 194.6621,73.7383333 C206.93516,73.7383333 211.405479,69.2619444 211.405479,62.4252778 L211.405479,18.3125 L211.405479,18.3125 Z" id="Shape"></path>
                    <path d="M254.076712,78.1333333 L231.237443,2.93 C230.912329,1.87194444 231.237443,1.22083333 232.619178,1.22083333 L238.06484,1.22083333 C239.121461,1.22083333 239.771689,1.87194444 240.096804,2.93 L256.515068,57.2977778 C257.571689,61.3672222 258.872146,68.6108333 259.278539,69.5875 C259.278539,68.9363889 260.660274,62.4252778 262.042009,57.6233333 L278.785388,2.93 C279.110502,1.87194444 279.435616,1.22083333 280.817352,1.22083333 L285.612785,1.22083333 C286.994521,1.22083333 287.319635,1.87194444 286.994521,2.93 L263.66758,78.1333333 C263.342466,79.1913889 262.610959,79.8425 261.635616,79.8425 L256.515068,79.8425 C255.133333,79.8425 254.401826,79.5169444 254.076712,78.1333333" id="Shape"></path>
                    <path d="M318.286758,2.93 L341.53242,78.1333333 C341.857534,79.1913889 341.53242,79.8425 340.150685,79.8425 L335.030137,79.8425 C333.973516,79.8425 333.323288,79.1913889 332.998174,78.1333333 L326.49589,57.6233333 L299.83653,57.6233333 L293.659361,78.1333333 C293.334247,79.1913889 293.009132,79.8425 291.627397,79.8425 L286.831963,79.8425 C285.775342,79.8425 285.125114,79.1913889 285.450228,78.1333333 L308.289498,2.93 C308.614612,1.87194444 309.346119,1.22083333 310.321461,1.22083333 L315.442009,1.22083333 C317.230137,1.22083333 317.961644,1.95333333 318.286758,2.93 L318.286758,2.93 Z M316.254795,23.7655556 C315.198174,20.0216667 313.491324,11.1502778 313.491324,9.76666667 C313.491324,10.4177778 312.109589,18.9636111 310.727854,23.44 L302.193607,50.7866667 L325.114155,50.7866667 L316.254795,23.7655556 L316.254795,23.7655556 Z" id="Shape"></path>
                    <path d="M389.242922,1.22083333 C390.299543,1.22083333 390.949772,1.54638889 390.949772,2.93 L390.949772,6.67388889 C390.949772,8.0575 390.299543,8.38305556 389.242922,8.38305556 L369.410959,8.38305556 L369.410959,78.4588889 C369.410959,79.5169444 369.085845,80.1680556 367.70411,80.1680556 L362.583562,80.1680556 C361.201826,80.1680556 360.876712,79.5169444 360.876712,78.4588889 L360.876712,8.38305556 L341.044749,8.38305556 C339.663014,8.38305556 339.3379,8.0575 339.3379,6.67388889 L339.3379,2.93 C339.3379,1.54638889 339.663014,1.22083333 341.044749,1.22083333 L389.242922,1.22083333 L389.242922,1.22083333 Z" id="Shape"></path>
                    <path d="M411.757078,78.1333333 C411.757078,79.1913889 411.431963,79.8425 410.050228,79.8425 L405.254795,79.8425 C404.198174,79.8425 403.547945,79.1913889 403.547945,78.1333333 L403.547945,2.93 C403.547945,1.87194444 403.873059,1.22083333 405.254795,1.22083333 L410.050228,1.22083333 C411.431963,1.22083333 411.757078,1.87194444 411.757078,2.93 L411.757078,78.1333333 L411.757078,78.1333333 Z" id="Shape"></path>
                    <path d="M431.263927,17.3358333 C431.263927,8.13888889 437.441096,0.569722222 456.216438,0.569722222 C475.316895,0.569722222 481.494064,8.0575 481.494064,17.3358333 L481.494064,64.1344444 C481.494064,73.3313889 475.723288,80.9005556 456.216438,80.9005556 C437.115982,80.9005556 431.263927,73.4127778 431.263927,64.1344444 L431.263927,17.3358333 L431.263927,17.3358333 Z M473.203653,18.3125 C473.203653,11.4758333 468.408219,6.99944444 456.460274,6.99944444 C444.187215,6.99944444 439.716895,11.4758333 439.716895,18.3125 L439.716895,62.4252778 C439.716895,69.2619444 444.512329,73.7383333 456.460274,73.7383333 C468.733333,73.7383333 473.203653,69.2619444 473.203653,62.4252778 L473.203653,18.3125 L473.203653,18.3125 Z" id="Shape"></path>
                    <path d="M551.068493,78.1333333 C551.068493,79.1913889 550.743379,79.8425 549.361644,79.8425 L544.891324,79.8425 C544.241096,79.8425 543.509589,79.5169444 543.184475,79.1913889 L512.461187,24.8236111 C510.10411,20.3472222 508.722374,17.6613889 508.39726,17.3358333 L508.39726,78.5402778 C508.39726,79.5983333 508.072146,80.2494444 506.690411,80.2494444 L502.220091,80.2494444 C500.838356,80.2494444 500.513242,79.5983333 500.513242,78.5402778 L500.513242,3.25555556 C500.513242,2.1975 500.838356,1.54638889 502.220091,1.54638889 L506.690411,1.54638889 C507.340639,1.54638889 507.747032,1.87194444 508.072146,2.1975 L539.445662,57.5419444 C540.502283,59.2511111 542.859361,64.3786111 542.859361,64.3786111 L542.859361,2.84861111 C542.859361,1.79055556 543.184475,1.13944444 544.56621,1.13944444 L549.03653,1.13944444 C550.418265,1.13944444 550.743379,1.79055556 550.743379,2.84861111 L550.743379,78.1333333 L551.068493,78.1333333 L551.068493,78.1333333 Z" id="Shape"></path>
                </g>
                <g id="Group" transform="translate(371.931507, 106.619444)" fill="#FFFFFF">
                    <path d="M48.9296804,64.1344444 C48.9296804,73.3313889 43.4840183,80.9005556 24.7086758,80.9005556 C5.60821918,80.9005556 0.487671233,73.4127778 0.487671233,64.1344444 L0.487671233,17.3358333 C0.487671233,8.13888889 5.93333333,0.569722222 24.7086758,0.569722222 C43.8091324,0.569722222 48.9296804,8.0575 48.9296804,17.3358333 L48.9296804,23.1144444 C48.9296804,24.4980556 48.6045662,24.8236111 47.2228311,24.8236111 L42.4273973,24.8236111 C41.0456621,24.8236111 40.7205479,24.1725 40.7205479,23.1144444 L40.7205479,18.3125 C40.7205479,11.4758333 36.656621,6.99944444 24.3022831,6.99944444 C12.0292237,6.99944444 7.88401826,11.4758333 7.88401826,18.3125 L7.88401826,62.4252778 C7.88401826,69.2619444 11.9479452,73.7383333 24.3022831,73.7383333 C36.5753425,73.7383333 40.7205479,69.2619444 40.7205479,62.4252778 L40.7205479,56.2397222 C40.7205479,55.1816667 41.0456621,54.5305556 42.4273973,54.5305556 L47.2228311,54.5305556 C48.2794521,54.5305556 48.9296804,55.1816667 48.9296804,56.2397222 L48.9296804,64.1344444 L48.9296804,64.1344444 Z" id="Shape"></path>
                    <path d="M67.0547945,80.1680556 C65.9981735,80.1680556 65.6730594,79.5169444 65.6730594,78.4588889 L65.6730594,3.25555556 C65.6730594,2.1975 65.9981735,1.54638889 67.3799087,1.54638889 L106.962557,1.54638889 C108.019178,1.54638889 108.669406,1.87194444 108.669406,3.25555556 L108.669406,6.67388889 C108.669406,8.0575 108.019178,8.38305556 106.962557,8.38305556 L73.8821918,8.38305556 L73.8821918,35.4041667 L104.605479,35.4041667 C105.987215,35.4041667 106.312329,35.7297222 106.312329,37.1133333 L106.312329,40.5316667 C106.312329,41.9152778 105.987215,42.2408333 104.605479,42.2408333 L73.8821918,42.2408333 L73.8821918,73.0058333 L108.344292,73.0058333 C109.400913,73.0058333 110.051142,73.3313889 110.051142,74.715 L110.051142,78.4588889 C110.051142,79.8425 109.400913,80.1680556 108.344292,80.1680556 L67.0547945,80.1680556 L67.0547945,80.1680556 Z" id="Shape"></path>
                    <path d="M175.968037,78.4588889 C175.968037,79.5169444 175.642922,80.1680556 174.261187,80.1680556 L169.790868,80.1680556 C169.140639,80.1680556 168.409132,79.8425 168.084018,79.5169444 L137.360731,25.1491667 C135.003653,20.6727778 133.621918,17.9869444 133.296804,17.6613889 L133.296804,78.8658333 C133.296804,79.9238889 132.971689,80.575 131.589954,80.575 L127.119635,80.575 C125.7379,80.575 125.412785,79.9238889 125.412785,78.8658333 L125.412785,3.6625 C125.412785,2.60444444 125.7379,1.95333333 127.119635,1.95333333 L131.589954,1.95333333 C132.240183,1.95333333 132.646575,2.27888889 132.971689,2.60444444 L164.345205,57.9488889 C165.401826,59.6580556 167.758904,64.7855556 167.758904,64.7855556 L167.758904,3.25555556 C167.758904,2.1975 168.084018,1.54638889 169.465753,1.54638889 L173.936073,1.54638889 C175.317808,1.54638889 175.642922,2.1975 175.642922,3.25555556 L175.642922,78.4588889 L175.968037,78.4588889 L175.968037,78.4588889 Z" id="Shape"></path>
                    <path d="M238.389954,1.62777778 C239.446575,1.62777778 240.096804,1.95333333 240.096804,3.33694444 L240.096804,7.08083333 C240.096804,8.46444444 239.446575,8.79 238.389954,8.79 L218.557991,8.79 L218.557991,78.8658333 C218.557991,79.9238889 218.232877,80.575 216.851142,80.575 L211.730594,80.575 C210.348858,80.575 210.023744,79.9238889 210.023744,78.8658333 L210.023744,8.46444444 L190.191781,8.46444444 C188.810046,8.46444444 188.484932,8.13888889 188.484932,6.75527778 L188.484932,3.01138889 C188.484932,1.62777778 188.810046,1.30222222 190.191781,1.30222222 L238.308676,1.30222222 L238.308676,1.62777778 L238.389954,1.62777778 Z" id="Shape"></path>
                    <path d="M254.076712,80.1680556 C253.020091,80.1680556 252.694977,79.5169444 252.694977,78.4588889 L252.694977,3.25555556 C252.694977,2.1975 253.020091,1.54638889 254.401826,1.54638889 L293.984475,1.54638889 C295.041096,1.54638889 295.691324,1.87194444 295.691324,3.25555556 L295.691324,6.67388889 C295.691324,8.0575 295.041096,8.38305556 293.984475,8.38305556 L260.90411,8.38305556 L260.90411,35.4041667 L291.627397,35.4041667 C293.009132,35.4041667 293.334247,35.7297222 293.334247,37.1133333 L293.334247,40.5316667 C293.334247,41.9152778 293.009132,42.2408333 291.627397,42.2408333 L260.90411,42.2408333 L260.90411,73.0058333 L295.36621,73.0058333 C296.422831,73.0058333 297.073059,73.3313889 297.073059,74.715 L297.073059,78.4588889 C297.073059,79.8425 296.422831,80.1680556 295.36621,80.1680556 L254.076712,80.1680556 L254.076712,80.1680556 Z" id="Shape"></path>
                    <path d="M321.375342,48.1008333 L321.375342,78.5402778 C321.375342,79.5983333 321.050228,80.2494444 319.668493,80.2494444 L314.873059,80.2494444 C313.816438,80.2494444 313.16621,79.5983333 313.16621,78.5402778 L313.16621,3.33694444 C313.16621,2.27888889 313.491324,1.62777778 314.547945,1.62777778 L337.387215,1.62777778 C356.487671,1.62777778 362.66484,9.11555556 362.66484,18.3938889 L362.66484,31.4161111 C362.66484,38.5783333 358.926027,44.7638889 348.359817,47.1241667 L363.396347,78.5402778 C363.721461,79.5983333 363.071233,80.2494444 361.689498,80.2494444 L356.812785,80.2494444 C355.43105,80.2494444 355.43105,79.5983333 354.780822,78.5402778 L340.475799,48.1008333 L337.712329,48.1008333 L321.375342,48.1008333 L321.375342,48.1008333 L321.375342,48.1008333 Z M321.375342,8.46444444 L321.375342,41.2641667 L337.793607,41.2641667 C350.066667,41.2641667 354.536986,36.7877778 354.536986,29.9511111 L354.536986,19.6961111 C354.536986,12.8594444 350.066667,8.38305556 337.793607,8.38305556 L321.375342,8.46444444 L321.375342,8.46444444 L321.375342,8.46444444 Z" id="Shape"></path>
                </g>
                <g id="Group" transform="translate(371.118721, 211.611111)" fill="#FFFFFF">
                    <path d="M47.3853881,79.4355556 C47.3853881,80.0866667 47.060274,80.4936111 46.3287671,80.4936111 L44.6219178,80.4936111 C44.2968037,80.4936111 43.9716895,80.4936111 43.5652968,80.1680556 L7.72146119,16.2777778 C6.33972603,14.2430556 4.30776256,10.0922222 4.30776256,9.76666667 L4.30776256,79.5169444 C4.30776256,80.1680556 3.9826484,80.575 3.25114155,80.575 L1.62557078,80.575 C0.975342466,80.575 0.568949772,80.2494444 0.568949772,79.5169444 L0.568949772,2.60444444 C0.568949772,1.95333333 0.894063927,1.54638889 1.62557078,1.54638889 L3.33242009,1.54638889 C3.9826484,1.54638889 3.9826484,1.54638889 4.3890411,1.87194444 L40.2328767,66.1691667 L43.6465753,72.3547222 L43.6465753,2.60444444 C43.6465753,1.95333333 43.9716895,1.54638889 44.7031963,1.54638889 L46.4100457,1.54638889 C47.060274,1.54638889 47.4666667,1.87194444 47.4666667,2.60444444 L47.4666667,79.4355556 L47.3853881,79.4355556 Z" id="Shape"></path>
                    <path d="M71.9315068,80.4936111 C71.2812785,80.4936111 70.8748858,80.1680556 70.8748858,79.4355556 L70.8748858,2.52305556 C70.8748858,1.87194444 71.2,1.465 71.9315068,1.465 L111.514155,1.465 C112.164384,1.465 112.570776,1.79055556 112.570776,2.52305556 L112.570776,3.90666667 C112.570776,4.55777778 112.245662,4.96472222 111.514155,4.96472222 L75.0200913,4.96472222 L75.0200913,37.1133333 L109.482192,37.1133333 C110.13242,37.1133333 110.538813,37.4388889 110.538813,38.1713889 L110.538813,39.555 C110.538813,40.2061111 110.213699,40.6130556 109.482192,40.6130556 L75.0200913,40.6130556 L75.0200913,77.1566667 L113.221005,77.1566667 C113.871233,77.1566667 114.277626,77.4822222 114.277626,78.2147222 L114.277626,79.5983333 C114.277626,80.2494444 113.952511,80.6563889 113.221005,80.6563889 L71.9315068,80.4936111 L71.9315068,80.4936111 L71.9315068,80.4936111 Z" id="Shape"></path>
                    <path d="M172.635616,1.54638889 C173.285845,1.54638889 173.692237,1.87194444 173.692237,2.60444444 L173.692237,3.98805556 C173.692237,4.63916667 173.367123,5.04611111 172.635616,5.04611111 L150.446575,5.04611111 L150.446575,79.5169444 C150.446575,80.1680556 150.121461,80.575 149.389954,80.575 L147.357991,80.575 C146.707763,80.575 146.30137,80.2494444 146.30137,79.5169444 L146.30137,5.04611111 L124.437443,5.04611111 C123.787215,5.04611111 123.380822,4.72055556 123.380822,3.98805556 L123.380822,2.60444444 C123.380822,1.95333333 123.705936,1.54638889 124.437443,1.54638889 L172.635616,1.54638889 L172.635616,1.54638889 L172.635616,1.54638889 Z" id="Shape"></path>
                    <path d="M239.852968,65.7622222 C240.503196,68.855 241.559817,73.6569444 241.559817,73.6569444 C241.559817,73.6569444 242.210046,69.5875 243.266667,65.7622222 L259.684932,2.52305556 C260.010046,1.87194444 260.010046,1.465 260.741553,1.465 L262.448402,1.465 C263.09863,1.465 263.505023,1.79055556 263.09863,2.52305556 L243.673059,79.4355556 C243.347945,80.0866667 243.022831,80.4936111 242.291324,80.4936111 L240.259361,80.4936111 C239.609132,80.4936111 239.20274,80.1680556 238.877626,79.4355556 L222.459361,15.1383333 C221.809132,13.1036111 221.077626,9.35972222 221.077626,8.30166667 C221.077626,8.62722222 220.427397,11.72 219.69589,15.1383333 L203.277626,79.4355556 C202.952511,80.0866667 202.627397,80.4936111 201.89589,80.4936111 L199.945205,80.4936111 C199.294977,80.4936111 198.888584,80.1680556 198.56347,79.4355556 L179.1379,2.52305556 C178.812785,1.87194444 179.1379,1.465 180.194521,1.465 L181.90137,1.465 C182.551598,1.465 182.957991,1.79055556 183.283105,2.52305556 L199.294977,65.7622222 L201.001826,73.6569444 C201.001826,73.3313889 202.058447,68.855 202.708676,65.7622222 L219.126941,2.52305556 C219.452055,1.87194444 219.452055,1.465 220.183562,1.465 L221.890411,1.465 C222.540639,1.465 222.947032,1.79055556 222.947032,2.52305556 L239.852968,65.7622222 L239.852968,65.7622222 Z" id="Shape"></path>
                    <path d="M276.103196,16.1963889 C276.103196,7.325 281.223744,0.488333333 299.348858,0.488333333 C317.473973,0.488333333 322.594521,7.325 322.594521,16.1963889 L322.594521,65.4366667 C322.594521,74.3080556 317.473973,81.1447222 299.348858,81.1447222 C281.223744,81.1447222 276.103196,74.3080556 276.103196,65.4366667 L276.103196,16.1963889 L276.103196,16.1963889 Z M318.368037,16.9288889 C318.368037,9.44111111 313.897717,4.31361111 298.942466,4.31361111 C284.23105,4.31361111 279.516895,9.76666667 279.516895,16.9288889 L279.516895,65.1111111 C279.516895,72.5988889 283.987215,77.7263889 298.942466,77.7263889 C313.978995,77.7263889 318.368037,72.2733333 318.368037,65.1111111 L318.368037,16.9288889 L318.368037,16.9288889 Z" id="Shape"></path>
                    <path d="M348.76621,46.9613889 L348.76621,79.11 C348.76621,79.7611111 348.441096,80.1680556 347.709589,80.1680556 L346.00274,80.1680556 C345.352511,80.1680556 344.946119,79.8425 344.946119,79.11 L344.946119,2.52305556 C344.946119,1.87194444 345.271233,1.465 346.00274,1.465 L368.191781,1.465 C386.316895,1.465 391.762557,8.30166667 391.762557,17.1730556 L391.762557,31.1719444 C391.762557,38.6597222 388.023744,44.5197222 376.400913,46.5544444 L393.144292,79.3541667 C393.469406,80.0052778 393.144292,80.4122222 392.087671,80.4122222 L390.055708,80.4122222 C389.405479,80.4122222 388.999087,80.0866667 388.673973,79.3541667 L372.255708,46.88 L368.191781,46.88 L348.76621,46.9613889 L348.76621,46.9613889 L348.76621,46.9613889 Z M348.76621,4.96472222 L348.76621,43.6244444 L367.866667,43.6244444 C382.903196,43.6244444 387.292237,38.1713889 387.292237,31.0091667 L387.292237,17.6613889 C387.292237,10.1736111 382.821918,5.04611111 367.866667,5.04611111 L348.76621,4.96472222 L348.76621,4.96472222 L348.76621,4.96472222 Z" id="Shape"></path>
                    <path d="M459.386301,79.4355556 C459.711416,79.7611111 459.386301,80.4936111 459.061187,80.4936111 L456.297717,80.4936111 C455.647489,80.4936111 454.915982,80.1680556 454.590868,79.4355556 L421.10411,42.485 L416.63379,42.485 L416.63379,79.4355556 C416.63379,80.0866667 416.308676,80.4936111 415.577169,80.4936111 L413.87032,80.4936111 C413.220091,80.4936111 412.813699,80.1680556 412.813699,79.4355556 L412.813699,2.52305556 C412.813699,1.87194444 413.138813,1.465 413.87032,1.465 L415.577169,1.465 C416.227397,1.465 416.63379,1.79055556 416.63379,2.52305556 L416.63379,39.0666667 L421.10411,39.0666667 L451.502283,2.11611111 C451.827397,1.79055556 452.558904,1.05805556 453.209132,1.05805556 L455.241096,1.05805556 C455.891324,1.05805556 456.297717,1.38361111 455.56621,2.11611111 L424.192694,40.0433333 L459.386301,79.4355556 L459.386301,79.4355556 Z" id="Shape"></path>
                </g>
                <g id="Group">
                    <path d="M208.723288,67.5527778 L224.410046,83.2608333 C217.907763,96.9341667 215.550685,108.572778 217.582648,118.095278 C219.289498,126.315556 224.410046,134.535833 232.944292,143.081667 L266.43105,176.613889 C277.322374,187.52 284.556164,196.798333 288.620091,209.088056 C293.740639,224.145 293.415525,246.364167 279.435616,264.106944 L262.367123,247.015278 C269.519635,234.4 268.544292,227.156389 266.837443,217.959444 C265.780822,213.483056 259.359817,201.518889 250.419178,192.6475 L216.93242,159.115278 C198.075799,140.721389 178.650228,112.967778 208.723288,67.5527778" id="Shape" fill="#AA217D"></path>
                    <path d="M83.7981735,224.063611 L68.030137,208.355556 C74.5324201,194.682222 76.8894977,183.043611 74.8575342,173.521111 C73.1506849,165.300833 68.030137,157.080556 59.4958904,148.534722 L26.0091324,115.0025 C15.1178082,104.096389 7.88401826,94.8180556 3.82009132,82.5283333 C-1.30045662,67.4713889 -0.975342466,45.2522222 13.0045662,27.5094444 L30.0730594,44.6011111 C22.9205479,57.2163889 23.8958904,64.46 25.6027397,73.6569444 C26.6593607,78.1333333 33.0803653,90.0975 42.0210046,98.9688889 L75.5077626,132.501111 C94.3643836,150.976389 113.46484,178.648611 83.7981735,224.063611" id="Shape" fill="#78B443"></path>
                    <path d="M224.084932,208.355556 L208.398174,224.063611 C194.743379,217.5525 183.120548,215.192222 173.610959,217.226944 C165.401826,218.936111 157.192694,224.063611 148.658447,232.609444 L115.171689,266.141667 C104.280365,277.047778 95.0146119,284.291389 82.7415525,288.360833 C67.7050228,293.488333 45.5159817,293.162778 27.7972603,279.163889 L44.8657534,262.072222 C57.4639269,269.234444 64.6977169,268.257778 73.8821918,266.548611 C78.3525114,265.490556 90.3004566,259.060833 99.1598174,250.108056 L132.646575,216.575833 C151.015525,197.775 178.650228,178.648611 224.084932,208.355556" id="Shape" fill="#EE8922"></path>
                    <path d="M208.316895,224.063611 L224.003653,208.355556 C217.50137,194.682222 215.144292,183.043611 217.176256,173.521111 C218.883105,165.300833 224.003653,157.080556 232.5379,148.534722 L266.024658,115.0025 C276.915982,104.096389 284.149772,94.8180556 288.213699,82.5283333 C293.334247,67.4713889 293.009132,45.2522222 279.029224,27.5094444 L261.960731,44.6011111 C269.113242,57.2163889 268.1379,64.46 266.43105,73.6569444 C265.374429,78.1333333 258.953425,90.0975 250.012785,98.9688889 L216.526027,132.501111 C197.750685,150.976389 178.325114,178.648611 208.316895,224.063611" id="Shape" fill="#F7B916"></path>
                    <path d="M68.030137,208.355556 L83.716895,224.063611 C97.3716895,217.5525 108.994521,215.192222 118.50411,217.226944 C126.713242,218.936111 134.922374,224.063611 143.456621,232.609444 L176.943379,266.141667 C187.834703,277.047778 197.100457,284.291389 209.373516,288.360833 C224.410046,293.488333 246.599087,293.162778 264.317808,279.163889 L247.249315,262.072222 C234.651142,269.234444 227.417352,268.257778 218.232877,266.548611 C213.762557,265.490556 201.814612,259.060833 192.955251,250.108056 L159.468493,216.575833 C141.099543,197.775 113.46484,178.241667 68.030137,208.355556" id="Shape" fill="#BACE32"></path>
                    <path d="M67.3799087,83.2608333 L83.0666667,67.5527778 C96.7214612,74.0638889 108.344292,76.4241667 117.853881,74.3894444 C126.063014,72.6802778 134.272146,67.5527778 142.806393,59.0069444 L176.293151,25.4747222 C187.184475,14.5686111 196.450228,7.325 208.723288,3.25555556 C223.759817,-1.87194444 245.948858,-1.54638889 263.66758,12.4525 L246.599087,29.5441667 C234.000913,22.3819444 226.767123,23.3586111 217.582648,25.0677778 C213.112329,26.1258333 201.164384,32.5555556 192.305023,41.5083333 L159.549772,75.0405556 C140.774429,93.8413889 113.139726,112.967778 67.3799087,83.2608333" id="Shape" fill="#047CC0"></path>
                    <path d="M224.410046,83.2608333 L208.723288,67.5527778 C195.068493,74.0638889 183.445662,76.4241667 173.936073,74.3894444 C165.726941,72.6802778 157.517808,67.5527778 148.983562,59.0069444 L115.496804,25.4747222 C104.605479,14.5686111 95.339726,7.325 83.0666667,3.25555556 C68.030137,-1.87194444 45.8410959,-1.54638889 28.1223744,12.4525 L45.1908676,29.5441667 C57.7890411,22.3819444 65.0228311,23.3586111 74.2073059,25.0677778 C78.6776256,26.1258333 90.6255708,32.5555556 99.4849315,41.5083333 L132.971689,75.0405556 C151.340639,93.8413889 178.975342,112.967778 224.410046,83.2608333" id="Shape" fill="#EB008B"></path>
                    <path d="M83.3917808,67.5527778 L67.7050228,83.2608333 C74.2073059,96.9341667 76.5643836,108.572778 74.5324201,118.095278 C72.8255708,126.315556 67.7050228,134.535833 59.1707763,143.081667 L25.7652968,176.613889 C14.8739726,187.52 7.64018265,196.798333 3.57625571,209.088056 C-1.54429224,224.145 -1.21917808,246.364167 12.7607306,264.106944 L29.8292237,247.015278 C22.6767123,234.4 23.6520548,227.156389 25.3589041,217.959444 C26.4155251,213.483056 32.8365297,201.518889 41.7771689,192.6475 L75.2639269,159.115278 C94.0392694,140.721389 113.139726,112.967778 83.3917808,67.5527778" id="Shape" fill="#24B6EA"></path>
                </g>
            </g>
        </g>
    </g>
</svg>