<?xml version="1.0" encoding="iso-8859-1"?>
<!DOCTYPE svg PUBLIC "-//W3C//DTD SVG 1.1//EN" "http://www.w3.org/Graphics/SVG/1.1/DTD/svg11.dtd">
<svg xmlns="http://www.w3.org/2000/svg" xmlns:xlink="http://www.w3.org/1999/xlink" version="1.1" viewBox="0 0 297 297" enable-background="new 0 0 297 297" width="512px" height="512px">
  <g>
    <path d="m221.356,76.687c19.055,0 34.558-15.503 34.558-34.558s-15.503-34.559-34.558-34.559-34.558,15.503-34.558,34.558 15.503,34.559 34.558,34.559zm0-52.131c9.689,3.55271e-15 17.572,7.882 17.572,17.572s-7.883,17.572-17.572,17.572c-9.689,0-17.572-7.882-17.572-17.572s7.882-17.572 17.572-17.572z" fill="#5884d3"/>
    <path d="M75.644,76.687c19.055,0,34.558-15.503,34.558-34.558S94.699,7.57,75.644,7.57S41.086,23.073,41.086,42.128   S56.589,76.687,75.644,76.687z M75.644,24.556c9.689,0,17.572,7.882,17.572,17.572S85.334,59.7,75.644,59.7   s-17.572-7.882-17.572-17.572S65.955,24.556,75.644,24.556z" fill="#5884d3"/>
    <path d="m288.507,164.763h-6.528v-46.524c0-14.759-9.407-27.81-23.408-32.476-0.064-0.021-9.391-2.884-9.391-2.884-4.321-1.328-8.923,0.965-10.471,5.211l-9.911,27.195c0,0-3.258-14.263-3.405-14.567l6.242-10.811c0.803-1.391 0.803-3.105 0-4.496-0.803-1.391-2.288-2.248-3.894-2.248h-12.768c-1.606,0-3.09,0.857-3.894,2.248-0.803,1.391-0.803,3.105 0,4.496l6.241,10.811c-0.147,0.305-3.404,14.568-3.404,14.568l-9.911-27.194c-1.548-4.247-6.152-6.542-10.471-5.212 0,0-9.326,2.863-9.391,2.884-14.001,4.665-23.408,17.717-23.408,32.476v4.403c-3.806-1.446-7.927-2.244-12.233-2.244s-8.428,0.798-12.233,2.244v-4.403c0-14.759-9.407-27.811-23.408-32.476-0.064-0.021-9.391-2.884-9.391-2.884-4.322-1.328-8.924,0.965-10.471,5.212l-9.911,27.194c0,0-3.257-14.263-3.404-14.568l6.241-10.811c0.803-1.391 0.803-3.105 0-4.496-0.804-1.391-2.288-2.248-3.894-2.248h-12.771c-1.606,0-3.091,0.857-3.894,2.248-0.803,1.391-0.803,3.105 0,4.496l6.242,10.811c-0.147,0.305-3.405,14.567-3.405,14.567l-9.912-27.195c-1.549-4.246-6.15-6.541-10.471-5.211 0,0-9.327,2.863-9.391,2.884-14.001,4.666-23.408,17.717-23.408,32.476v46.524h-6.528c-4.691,0-8.493,3.803-8.493,8.493v74.707c0,4.691 3.803,8.493 8.493,8.493h79.384v24.48c0,4.691 3.803,8.493 8.493,8.493h104.26c4.691,0 8.493-3.803 8.493-8.493v-24.48h79.384c4.691,0 8.493-3.803 8.493-8.493v-74.707c0-4.69-3.803-8.493-8.493-8.493zm-59.171,0l22.572-63.28 1.38,.423c7.005,2.376 11.705,8.927 11.705,16.333v46.524h-35.657zm-15.96,0h-31.743c0.922-3.111 1.426-6.4 1.426-9.807 0-6.767-1.963-13.081-5.338-18.417v-18.3c0-7.405 4.7-13.957 11.705-16.333l1.38-.423 22.57,63.28zm-47.304-9.806c0,9.689-7.882,17.572-17.572,17.572s-17.572-7.882-17.572-17.572c0-9.689 7.882-17.572 17.572-17.572s17.572,7.882 17.572,17.572zm-82.448,9.806l22.571-63.28 1.38,.423c7.005,2.376 11.705,8.927 11.705,16.333v18.3c-3.375,5.336-5.338,11.65-5.338,18.417 0,3.406 0.503,6.696 1.426,9.807h-31.744zm-15.96,0h-35.656v-46.524c0-7.405 4.7-13.957 11.705-16.333l1.38-.423 22.571,63.28zm124.473,107.681h-87.274v-42.461c0-7.404 4.7-13.956 11.705-16.333l6.083-1.866 22.451,9.8c2.166,0.947 4.629,0.947 6.795,0l22.451-9.8 6.083,1.866c7.005,2.377 11.705,8.928 11.705,16.333v42.461zm87.878-32.974h-70.89v-9.488c0-14.758-9.407-27.809-23.407-32.476-0.065-0.021-9.393-2.883-9.393-2.883-1.937-0.596-4.027-0.476-5.888,0.336l-21.936,9.574-21.936-9.574c-1.86-0.812-3.95-0.932-5.888-0.336 0,0-9.327,2.862-9.393,2.883-14,4.667-23.407,17.718-23.407,32.476v9.488h-70.89v-57.72h109.717c5.951,4.85 13.539,7.765 21.796,7.765s15.845-2.915 21.796-7.765h109.717v57.72z" fill="#5884d3"/>
  </g>
</svg>
