<?xml version="1.0" encoding="iso-8859-1"?>
<!DOCTYPE svg PUBLIC "-//W3C//DTD SVG 1.1//EN" "http://www.w3.org/Graphics/SVG/1.1/DTD/svg11.dtd">
<svg xmlns="http://www.w3.org/2000/svg" xmlns:xlink="http://www.w3.org/1999/xlink" version="1.1" viewBox="0 0 297 297" enable-background="new 0 0 297 297" width="512px" height="512px">
  <g>
    <path d="M148.5,65.886c18.165,0,32.943-14.778,32.943-32.943S166.665,0,148.5,0s-32.943,14.778-32.943,32.943   S130.335,65.886,148.5,65.886z M148.5,17.242c8.658,0,15.701,7.043,15.701,15.701s-7.043,15.701-15.701,15.701   s-15.701-7.043-15.701-15.701S139.842,17.242,148.5,17.242z" fill="#5884d3"/>
    <path d="m247.184,219.82c1.128,0.495 2.305,0.73 3.462,0.73 3.317,0 6.479-1.924 7.898-5.156l13.458-30.645c1.915-4.359-0.067-9.445-4.426-11.36l-30.645-13.458c-4.364-1.918-9.445,0.067-11.36,4.426s0.067,9.445 4.426,11.36l11.59,5.09-55.113,21.476v-8.391l17.874-27.198c0.924-1.405 1.416-3.052 1.416-4.734v-52.439c0-14.072-8.969-26.516-22.318-30.964-0.065-0.022-8.779-2.697-8.779-2.697-4.386-1.346-9.058,0.98-10.629,5.29l-8.313,22.809c0,0-2.928-12.896-3.039-13.154l5.724-9.915c0.815-1.412 0.815-3.152 0-4.564-0.815-1.412-2.323-2.282-3.953-2.282h-11.915c-1.63,0-3.138,0.87-3.953,2.282-0.815,1.412-0.815,3.152 0,4.564l5.724,9.915c-0.111,0.258-3.039,13.154-3.039,13.154l-8.313-22.809c-1.571-4.312-6.244-6.639-10.629-5.29 0,0-8.714,2.675-8.779,2.697-13.349,4.448-22.318,16.892-22.318,30.964v52.439c0,1.683 0.492,3.329 1.416,4.734l17.874,27.198v6.348l-53.105-23.325 11.793-4.596c4.436-1.728 6.631-6.726 4.903-11.163-1.729-4.437-6.728-6.636-11.163-4.903l-31.186,12.152c-4.436,1.728-6.631,6.726-4.903,11.163l12.152,31.186c1.328,3.408 4.585,5.493 8.035,5.493 1.041,0 2.1-0.189 3.128-0.59 4.436-1.728 6.631-6.726 4.903-11.163l-4.596-11.794 60.039,26.369v12.807l-61.373,23.915 5.089-11.589c1.915-4.359-0.067-9.445-4.426-11.36-4.364-1.919-9.446,0.067-11.36,4.426l-13.458,30.645c-1.915,4.359 0.067,9.445 4.426,11.36l30.645,13.458c1.128,0.495 2.305,0.73 3.462,0.73 3.317,0 6.479-1.924 7.898-5.156 1.915-4.359-0.067-9.445-4.426-11.36l-11.59-5.09 55.113-21.476v14.314c0,4.761 3.86,8.621 8.621,8.621h58.707c4.761,0 8.621-3.86 8.621-8.621v-12.27l53.105,23.323-11.793,4.595c-4.436,1.728-6.631,6.726-4.903,11.163 1.328,3.408 4.585,5.494 8.035,5.493 1.041,0 2.1-0.189 3.128-0.59l31.186-12.152c4.436-1.728 6.631-6.726 4.903-11.163l-12.152-31.186c-1.729-4.437-6.727-6.636-11.163-4.903-4.436,1.728-6.631,6.726-4.903,11.163l4.596,11.794-60.039-26.369v-12.808l61.373-23.915-5.089,11.589c-1.915,4.362 0.067,9.448 4.426,11.363zm-76.535-33.243c-0.924,1.405-1.416,3.052-1.416,4.734v64.764h-41.465v-64.764c0-1.683-0.492-3.329-1.416-4.734l-17.874-27.198v-49.86c0-6.607 4.192-12.454 10.44-14.578l.647-.198 20.835,57.167c1.241,3.404 4.477,5.669 8.1,5.669s6.859-2.265 8.1-5.669l20.835-57.167 .647,.198c6.249,2.124 10.441,7.97 10.441,14.578v49.86l-17.874,27.198z" fill="#5884d3"/>
  </g>
</svg>
