<?xml version="1.0" encoding="UTF-8" standalone="no"?>
<svg
   xmlns:dc="http://purl.org/dc/elements/1.1/"
   xmlns:cc="http://creativecommons.org/ns#"
   xmlns:rdf="http://www.w3.org/1999/02/22-rdf-syntax-ns#"
   xmlns:svg="http://www.w3.org/2000/svg"
   xmlns="http://www.w3.org/2000/svg"
   viewBox="0 0 352.30667 122.52"
   height="122.52"
   width="352.30667"
   xml:space="preserve"
   id="svg2"
   version="1.1"><metadata
     id="metadata8"><rdf:RDF><cc:Work
         rdf:about=""><dc:format>image/svg+xml</dc:format><dc:type
           rdf:resource="http://purl.org/dc/dcmitype/StillImage" /></cc:Work></rdf:RDF></metadata><defs
     id="defs6"><clipPath
       id="clipPath20"
       clipPathUnits="userSpaceOnUse"><path
         id="path18"
         d="M 0,0 H 2642 V 918.879 H 0 Z" /></clipPath></defs><g
     transform="matrix(1.3333333,0,0,-1.3333333,0,122.52)"
     id="g10"><g
       transform="scale(0.1)"
       id="g12"><g
         id="g14"><g
           clip-path="url(#clipPath20)"
           id="g16"><path
             id="path22"
             style="fill:#ffffff;fill-opacity:1;fill-rule:nonzero;stroke:none"
             d="m 1051.54,603.266 c 0,-3.387 -1.01,-5.082 -4.74,-5.082 h -14.24 c -3.39,0 -4.74,1.695 -4.74,5.082 v 220.339 c 0,3.391 1.35,5.083 4.74,5.083 h 14.24 c 3.73,0 4.74,-1.692 4.74,-5.083 V 603.266" /><path
             id="path24"
             style="fill:#ffffff;fill-opacity:1;fill-rule:nonzero;stroke:none"
             d="m 1259.34,603.266 c 0,-3.387 -1.02,-5.082 -4.75,-5.082 h -12.88 c -2.37,0 -3.73,0.679 -4.75,2.367 l -89.83,159.328 c -7.45,12.887 -11.19,21.012 -11.52,22.035 V 603.266 c 0,-3.387 -1.36,-5.082 -4.75,-5.082 h -12.88 c -3.72,0 -5.08,1.695 -5.08,5.082 v 220.339 c 0,3.391 1.36,5.083 5.08,5.083 h 12.88 c 2.38,0 3.39,-0.668 4.07,-2.032 l 91.86,-161.695 c 2.72,-4.742 10.17,-20.336 10.17,-20.336 v 178.98 c 0,3.391 1.36,5.083 4.75,5.083 h 12.88 c 3.73,0 4.75,-1.692 4.75,-5.083 V 603.266" /><path
             id="path26"
             style="fill:#ffffff;fill-opacity:1;fill-rule:nonzero;stroke:none"
             d="m 1467.12,603.266 c 0,-3.387 -1.03,-5.082 -4.75,-5.082 h -12.88 c -2.37,0 -3.74,0.679 -4.75,2.367 l -89.83,159.328 c -7.45,12.887 -11.19,21.012 -11.52,22.035 V 603.266 c 0,-3.387 -1.36,-5.082 -4.76,-5.082 h -12.87 c -3.73,0 -5.09,1.695 -5.09,5.082 v 220.339 c 0,3.391 1.36,5.083 5.09,5.083 h 12.87 c 2.39,0 3.4,-0.668 4.08,-2.032 l 91.86,-161.695 c 2.72,-4.742 10.17,-20.336 10.17,-20.336 v 178.98 c 0,3.391 1.35,5.083 4.75,5.083 h 12.88 c 3.72,0 4.75,-1.692 4.75,-5.083 V 603.266" /><path
             id="path28"
             style="fill:#ffffff;fill-opacity:1;fill-rule:nonzero;stroke:none"
             d="m 1647.43,778.184 c 0,19.66 -13.55,32.539 -49.48,32.539 -35.6,0 -49.15,-12.879 -49.15,-32.539 V 648.688 c 0,-19.661 13.55,-32.54 49.15,-32.54 35.93,0 49.48,12.879 49.48,32.54 z m -122.71,3.726 c 0,27.113 17.63,49.496 73.23,49.496 56.27,0 73.55,-22.383 73.55,-49.496 V 644.961 c 0,-27.113 -17.28,-49.492 -73.55,-49.492 -55.6,0 -73.23,22.379 -73.23,49.492 V 781.91" /><path
             id="path30"
             style="fill:#ffffff;fill-opacity:1;fill-rule:nonzero;stroke:none"
             d="m 1772.17,603.266 -67.46,220.339 c -1.01,3.391 0.34,5.083 3.73,5.083 h 15.59 c 3.4,0 4.76,-1.692 5.76,-5.083 l 48.48,-158.98 c 3.39,-11.527 7.12,-32.547 7.79,-35.598 0.35,1.696 3.73,21.024 8.14,34.918 l 48.82,159.66 c 1.01,3.391 2.37,5.083 5.76,5.083 h 14.24 c 3.73,0 5.09,-1.692 4.06,-5.083 l -67.79,-220.339 c -1.02,-3.387 -2.72,-5.082 -6.1,-5.082 h -14.59 c -3.72,0 -5.41,1.695 -6.43,5.082" /><path
             id="path32"
             style="fill:#ffffff;fill-opacity:1;fill-rule:nonzero;stroke:none"
             d="m 1954.53,762.246 c -3.39,10.852 -7.8,37.289 -8.48,41.02 -0.33,-2.375 -4.4,-27.461 -8.47,-40.34 L 1912.5,682.93 h 66.78 z m 5.42,61.359 67.79,-220.332 c 1.03,-3.398 -0.33,-5.089 -4.06,-5.089 h -14.58 c -3.38,0 -5.08,1.691 -6.1,5.089 l -18.63,60.336 h -77.64 l -18.3,-60.336 c -1.02,-3.398 -2.37,-5.089 -5.76,-5.089 h -13.56 c -3.4,0 -4.74,1.691 -3.73,5.089 l 67.45,220.332 c 1.03,3.387 2.72,5.086 6.45,5.086 h 14.58 c 3.38,0 5.08,-1.699 6.09,-5.086" /><path
             id="path34"
             style="fill:#ffffff;fill-opacity:1;fill-rule:nonzero;stroke:none"
             d="m 2168.08,828.691 c 3.38,0 5.07,-1.363 5.07,-5.086 v -10.507 c 0,-3.727 -1.69,-5.086 -5.07,-5.086 h -58.3 V 603.273 c 0,-3.398 -1.36,-5.089 -4.75,-5.089 h -14.59 c -3.72,0 -5.08,1.691 -5.08,5.089 v 204.739 h -58.3 c -3.73,0 -5.09,1.359 -5.09,5.086 v 10.507 c 0,3.723 1.36,5.086 5.09,5.086 h 141.02" /><path
             id="path36"
             style="fill:#ffffff;fill-opacity:1;fill-rule:nonzero;stroke:none"
             d="m 2234.16,603.266 c 0,-3.387 -1.02,-5.082 -4.75,-5.082 h -14.23 c -3.39,0 -4.75,1.695 -4.75,5.082 v 220.339 c 0,3.391 1.36,5.083 4.75,5.083 h 14.23 c 3.73,0 4.75,-1.692 4.75,-5.083 V 603.266" /><path
             id="path38"
             style="fill:#ffffff;fill-opacity:1;fill-rule:nonzero;stroke:none"
             d="m 2414.49,778.184 c 0,19.66 -13.55,32.539 -49.49,32.539 -35.6,0 -49.15,-12.879 -49.15,-32.539 V 648.688 c 0,-19.661 13.55,-32.54 49.15,-32.54 35.94,0 49.49,12.879 49.49,32.54 z m -122.71,3.726 c 0,27.113 17.62,49.496 73.22,49.496 56.27,0 73.55,-22.383 73.55,-49.496 V 644.961 c 0,-27.113 -17.28,-49.492 -73.55,-49.492 -55.6,0 -73.22,22.379 -73.22,49.492 V 781.91" /><path
             id="path40"
             style="fill:#ffffff;fill-opacity:1;fill-rule:nonzero;stroke:none"
             d="m 2642.28,603.266 c 0,-3.387 -1.03,-5.082 -4.75,-5.082 h -12.88 c -2.37,0 -3.73,0.679 -4.76,2.367 l -89.82,159.328 c -7.45,12.887 -11.19,21.012 -11.53,22.035 V 603.266 c 0,-3.387 -1.35,-5.082 -4.74,-5.082 h -12.88 c -3.73,0 -5.09,1.695 -5.09,5.082 v 220.339 c 0,3.391 1.36,5.083 5.09,5.083 h 12.88 c 2.37,0 3.39,-0.668 4.07,-2.032 l 91.86,-161.695 c 2.71,-4.742 10.16,-20.336 10.16,-20.336 v 178.98 c 0,3.391 1.36,5.083 4.76,5.083 h 12.88 c 3.72,0 4.75,-1.692 4.75,-5.083 V 603.266" /><path
             id="path42"
             style="fill:#ffffff;fill-opacity:1;fill-rule:nonzero;stroke:none"
             d="m 1170.87,331.965 c 0,-27.121 -15.59,-49.492 -71.52,-49.492 -55.94,0 -71.53,22.371 -71.53,49.492 v 136.941 c 0,27.114 15.59,49.492 71.53,49.492 55.93,0 71.52,-22.378 71.52,-49.492 v -17.285 c 0,-3.73 -1.36,-5.43 -4.74,-5.43 h -13.56 c -3.74,0 -5.08,1.7 -5.08,5.43 v 13.559 c 0,19.66 -11.87,32.535 -47.81,32.535 -35.93,0 -47.8,-12.875 -47.8,-32.535 V 335.684 c 0,-19.661 11.87,-32.539 47.8,-32.539 35.94,0 47.81,12.878 47.81,32.539 v 17.968 c 0,3.391 1.34,5.086 5.08,5.086 h 13.56 c 3.38,0 4.74,-1.695 4.74,-5.086 v -21.687" /><path
             id="path44"
             style="fill:#ffffff;fill-opacity:1;fill-rule:nonzero;stroke:none"
             d="m 1223.39,285.176 c -3.04,0 -4.4,1.699 -4.4,5.09 v 220.332 c 0,3.394 1.36,5.086 4.74,5.086 h 115.6 c 3.38,0 5.07,-1.36 5.07,-5.086 v -10.5 c 0,-3.727 -1.69,-5.082 -5.07,-5.082 h -96.62 v -78.993 h 90.51 c 3.72,0 5.09,-1.343 5.09,-5.085 v -9.825 c 0,-3.73 -1.37,-5.09 -5.09,-5.09 h -90.51 v -90.164 h 100.68 c 3.4,0 5.09,-1.347 5.09,-4.746 v -10.847 c 0,-3.735 -1.69,-5.09 -5.09,-5.09 h -120" /><path
             id="path46"
             style="fill:#ffffff;fill-opacity:1;fill-rule:nonzero;stroke:none"
             d="m 1542.71,290.266 c 0,-3.391 -1.03,-5.09 -4.75,-5.09 h -12.88 c -2.37,0 -3.73,0.683 -4.76,2.375 l -89.82,159.32 c -7.45,12.887 -11.19,21.012 -11.53,22.035 v -178.64 c 0,-3.391 -1.35,-5.09 -4.74,-5.09 h -12.88 c -3.73,0 -5.09,1.699 -5.09,5.09 v 220.332 c 0,3.394 1.36,5.086 5.09,5.086 h 12.88 c 2.37,0 3.39,-0.672 4.07,-2.032 l 91.86,-161.687 c 2.71,-4.746 10.16,-20.344 10.16,-20.344 v 178.977 c 0,3.394 1.36,5.086 4.76,5.086 h 12.88 c 3.72,0 4.75,-1.692 4.75,-5.086 V 290.266" /><path
             id="path48"
             style="fill:#ffffff;fill-opacity:1;fill-rule:nonzero;stroke:none"
             d="m 1725.73,515.684 c 3.39,0 5.09,-1.36 5.09,-5.082 V 500.09 c 0,-3.727 -1.7,-5.086 -5.09,-5.086 h -58.3 V 290.266 c 0,-3.403 -1.36,-5.09 -4.74,-5.09 h -14.58 c -3.73,0 -5.09,1.687 -5.09,5.09 v 204.738 h -58.3 c -3.73,0 -5.09,1.359 -5.09,5.086 v 10.512 c 0,3.722 1.36,5.082 5.09,5.082 h 141.01" /><path
             id="path50"
             style="fill:#ffffff;fill-opacity:1;fill-rule:nonzero;stroke:none"
             d="m 1772.5,285.176 c -3.05,0 -4.4,1.699 -4.4,5.09 v 220.332 c 0,3.394 1.35,5.086 4.74,5.086 h 115.59 c 3.39,0 5.09,-1.36 5.09,-5.086 v -10.5 c 0,-3.727 -1.7,-5.082 -5.09,-5.082 h -96.61 v -78.993 h 90.5 c 3.73,0 5.09,-1.343 5.09,-5.085 v -9.825 c 0,-3.73 -1.36,-5.09 -5.09,-5.09 h -90.5 v -90.164 h 100.68 c 3.39,0 5.08,-1.347 5.08,-4.746 v -10.847 c 0,-3.735 -1.69,-5.09 -5.08,-5.09 h -120" /><path
             id="path52"
             style="fill:#ffffff;fill-opacity:1;fill-rule:nonzero;stroke:none"
             d="m 1969.42,495.012 v -95.61 h 47.81 c 36.27,0 49.49,12.895 49.49,32.895 v 30.164 c 0,19.664 -13.22,32.551 -49.49,32.551 z m 0,-115.93 v -88.816 c 0,-3.391 -1.01,-5.09 -4.73,-5.09 h -14.24 c -3.39,0 -4.75,1.699 -4.75,5.09 v 220.336 c 0,3.386 1.36,5.086 4.41,5.086 h 67.12 c 56.27,0 73.55,-22.376 73.55,-49.497 V 428.23 c 0,-21.023 -10.51,-39.324 -42.03,-46.101 l 44.07,-91.863 c 1.36,-3.047 -1.01,-5.09 -4.74,-5.09 h -14.24 c -3.73,0 -4.42,2.043 -6.11,5.09 l -42.03,88.816 h -56.28" /><path
             id="path54"
             style="fill:#ffffff;fill-opacity:1;fill-rule:nonzero;stroke:none"
             d="m 1094.16,96.1914 c 0,-1.543 -0.46,-2.3047 -2.15,-2.3047 h -5.84 c -1.07,0 -1.69,0.3008 -2.15,1.0742 l -40.69,72.1801 c -3.38,5.828 -5.07,9.519 -5.22,9.976 V 96.1914 c 0,-1.543 -0.62,-2.3047 -2.15,-2.3047 h -5.84 c -1.69,0 -2.3,0.7617 -2.3,2.3047 v 99.8166 c 0,1.543 0.61,2.304 2.3,2.304 h 5.84 c 1.07,0 1.53,-0.304 1.84,-0.917 l 41.62,-73.254 c 1.22,-2.149 4.6,-9.219 4.6,-9.219 v 81.086 c 0,1.543 0.62,2.304 2.15,2.304 h 5.84 c 1.69,0 2.15,-0.761 2.15,-2.304 V 96.1914" /><path
             id="path56"
             style="fill:#ffffff;fill-opacity:1;fill-rule:nonzero;stroke:none"
             d="m 1170.2,93.8867 c -1.39,0 -2,0.7617 -2,2.3047 v 99.8166 c 0,1.543 0.61,2.304 2.15,2.304 h 52.36 c 1.54,0 2.31,-0.617 2.31,-2.304 v -4.758 c 0,-1.688 -0.77,-2.305 -2.31,-2.305 h -43.76 v -35.781 h 41 c 1.69,0 2.31,-0.613 2.31,-2.305 v -4.453 c 0,-1.687 -0.62,-2.304 -2.31,-2.304 h -41 v -40.848 h 45.61 c 1.53,0 2.31,-0.617 2.31,-2.149 v -4.9136 c 0,-1.6875 -0.78,-2.3047 -2.31,-2.3047 h -54.36" /><path
             id="path58"
             style="fill:#ffffff;fill-opacity:1;fill-rule:nonzero;stroke:none"
             d="m 1349.74,198.312 c 1.53,0 2.3,-0.617 2.3,-2.304 v -4.758 c 0,-1.688 -0.77,-2.305 -2.3,-2.305 h -26.42 V 96.1914 c 0,-1.543 -0.61,-2.3047 -2.15,-2.3047 h -6.6 c -1.69,0 -2.3,0.7617 -2.3,2.3047 v 92.7536 h -26.42 c -1.69,0 -2.31,0.617 -2.31,2.305 v 4.758 c 0,1.687 0.62,2.304 2.31,2.304 h 63.89" /><path
             id="path60"
             style="fill:#ffffff;fill-opacity:1;fill-rule:nonzero;stroke:none"
             d="m 1487.04,123.828 c 1.23,-5.066 2.31,-10.898 2.46,-12.129 0,0.774 0.62,5.071 2.46,12.129 l 18.43,72.18 c 0.46,1.543 1.07,2.304 2.76,2.304 h 5.69 c 1.53,0 2.15,-0.761 1.69,-2.304 l -25.34,-99.8166 c -0.46,-1.543 -1.23,-2.3047 -2.77,-2.3047 h -6.45 c -1.54,0 -2.3,0.7617 -2.77,2.3047 l -18.57,73.3986 c -1.23,4.609 -1.85,9.519 -2,10.605 -0.15,-0.925 -1.23,-6.757 -2.15,-10.754 l -18.59,-73.2496 c -0.45,-1.543 -1.23,-2.3047 -2.91,-2.3047 h -6.45 c -1.38,0 -2.15,0.7617 -2.62,2.3047 l -25.33,99.8166 c -0.46,1.543 0.16,2.304 1.85,2.304 h 6.6 c 1.53,0 2.15,-0.761 2.6,-2.304 l 18.28,-72.18 c 1.07,-4.297 2.46,-11.355 2.46,-11.355 0,0 0.77,4.754 2.46,11.355 l 18.43,72.18 c 0.45,1.543 1.07,2.304 2.76,2.304 h 6.14 c 1.54,0 2.15,-0.761 2.61,-2.304 l 18.27,-72.18" /><path
             id="path62"
             style="fill:#ffffff;fill-opacity:1;fill-rule:nonzero;stroke:none"
             d="m 1636.49,175.43 c 0,8.906 -6.14,14.746 -22.42,14.746 -16.12,0 -22.26,-5.84 -22.26,-14.746 v -58.66 c 0,-8.911 6.14,-14.747 22.26,-14.747 16.28,0 22.42,5.836 22.42,14.747 z m -55.58,1.687 c 0,12.285 7.98,22.426 33.16,22.426 25.5,0 33.33,-10.141 33.33,-22.426 v -62.039 c 0,-12.285 -7.83,-22.4218 -33.33,-22.4218 -25.18,0 -33.16,10.1368 -33.16,22.4218 v 62.039" /><path
             id="path64"
             style="fill:#ffffff;fill-opacity:1;fill-rule:nonzero;stroke:none"
             d="m 1730.34,188.945 v -43.3 H 1752 c 16.43,0 22.42,5.832 22.42,14.89 v 13.664 c 0,8.906 -5.99,14.746 -22.42,14.746 z m 0,-52.519 V 96.1914 c 0,-1.543 -0.46,-2.3047 -2.15,-2.3047 h -6.44 c -1.54,0 -2.16,0.7617 -2.16,2.3047 v 99.8166 c 0,1.543 0.62,2.304 2,2.304 H 1752 c 25.49,0 33.32,-10.136 33.32,-22.421 v -17.2 c 0,-9.519 -4.75,-17.812 -19.04,-20.879 l 19.97,-41.6206 c 0.61,-1.3867 -0.47,-2.3047 -2.16,-2.3047 h -6.44 c -1.69,0 -2.01,0.918 -2.77,2.3047 l -19.04,40.2346 h -25.5" /><path
             id="path66"
             style="fill:#ffffff;fill-opacity:1;fill-rule:nonzero;stroke:none"
             d="m 1923.55,96.1914 c 0.93,-1.0742 0.31,-2.3047 -1.07,-2.3047 h -8.6 c -1.69,0 -2.61,1.0742 -3.54,2.3047 l -38.53,45.7616 h -4.77 V 96.1914 c 0,-1.543 -0.46,-2.3047 -2.15,-2.3047 h -6.45 c -1.69,0 -2.3,0.7617 -2.3,2.3047 v 99.8166 c 0,1.543 0.61,2.304 2.3,2.304 h 6.45 c 1.69,0 2.15,-0.761 2.15,-2.304 v -45.766 h 4.77 l 35.47,45.918 c 0.92,1.235 2.14,2.152 3.83,2.152 h 7.07 c 1.54,0 2.15,-0.917 1.08,-2.304 l -38.24,-49.145 42.53,-50.6716" /><path
             id="path68"
             style="fill:#ffffff;fill-opacity:1;fill-rule:nonzero;stroke:none"
             d="m 658.148,706.891 c 0.188,0.277 49.977,-49.977 49.977,-49.977 -20.664,-43.203 -27.91,-79.973 -21.734,-110.305 5.097,-25.492 21.336,-51.925 48.707,-79.3 L 840.512,361.895 c 34.351,-34.356 56.668,-64.043 69.996,-102.969 16.176,-47.227 14.93,-117.949 -29.461,-173.2229 l -53.535,53.5349 c 22.422,39.7 19.793,62.617 13.789,91.426 -2.84,13.586 -23.797,51.359 -51.91,80.109 L 683.977,416.184 c -59.582,59.582 -120.27,146.824 -25.829,290.707" /><path
             id="path70"
             style="fill:#ffffff;fill-opacity:1;fill-rule:nonzero;stroke:none"
             d="m 263.109,212.102 c -0.183,-0.278 -49.972,49.976 -49.972,49.976 20.664,43.203 27.914,79.973 21.734,110.305 -5.101,25.488 -21.332,51.926 -48.711,79.297 L 80.7461,557.102 C 46.3984,591.449 24.082,621.137 10.7539,660.066 -5.42578,707.297 -4.17969,778.023 40.2148,833.293 L 93.75,779.75 C 71.3281,740.055 73.9609,717.141 79.9648,688.328 82.8008,674.75 103.754,636.969 131.871,608.223 L 237.289,502.809 c 59.574,-59.579 120.266,-146.825 25.82,-290.707" /><path
             id="path72"
             style="fill:#ffffff;fill-opacity:1;fill-rule:nonzero;stroke:none"
             d="m 706.773,261.855 c 0.278,-0.175 -49.976,-49.968 -49.976,-49.968 -43.207,20.664 -79.973,27.91 -110.305,21.738 C 521,228.523 494.562,212.285 467.191,184.91 L 361.777,79.4922 C 327.422,45.1484 297.734,22.832 258.805,9.50391 211.578,-6.67969 140.855,-5.42969 85.582,38.9648 L 139.121,92.5 c 39.695,-22.4219 62.613,-19.7969 91.426,-13.7891 13.578,2.8438 51.355,23.8011 80.101,51.9141 l 105.414,105.41 c 59.583,59.578 146.825,120.274 290.711,25.82" /><path
             id="path74"
             style="fill:#ffffff;fill-opacity:1;fill-rule:nonzero;stroke:none"
             d="m 656.895,211.992 c 0.183,-0.281 49.98,49.973 49.98,49.973 -20.668,43.203 -27.914,79.969 -21.738,110.301 5.097,25.488 21.332,51.933 48.707,79.3 L 839.262,556.98 c 34.347,34.352 56.66,64.043 69.996,102.969 16.176,47.235 14.926,117.957 -29.469,173.227 l -53.527,-53.535 c 22.414,-39.7 19.789,-62.618 13.781,-91.426 -2.836,-13.582 -23.793,-51.363 -51.906,-80.11 L 682.719,502.691 C 623.141,443.113 562.449,355.867 656.895,211.992" /><path
             id="path76"
             style="fill:#ffffff;fill-opacity:1;fill-rule:nonzero;stroke:none"
             d="m 213.238,261.973 c -0.277,-0.176 49.977,-49.969 49.977,-49.969 43.207,20.664 79.969,27.906 110.301,21.734 25.492,-5.093 51.929,-21.336 79.3,-48.711 L 558.23,79.6094 C 592.59,45.2656 622.27,22.9492 661.207,9.61719 708.434,-6.5625 779.156,-5.3125 834.426,39.082 L 780.891,92.6172 C 741.188,70.1953 718.27,72.8203 689.465,78.8281 675.883,81.6719 638.102,102.629 609.355,130.742 L 503.941,236.152 C 444.359,295.73 357.117,356.426 213.238,261.973" /><path
             id="path78"
             style="fill:#ffffff;fill-opacity:1;fill-rule:nonzero;stroke:none"
             d="m 211.98,656.898 c -0.277,0.188 49.977,49.977 49.977,49.977 43.207,-20.664 79.973,-27.91 110.305,-21.734 25.492,5.097 51.926,21.336 79.3,48.707 l 105.415,105.414 c 34.355,34.351 64.043,56.668 102.972,69.996 47.231,16.176 117.949,14.933 173.219,-29.461 l -53.535,-53.535 c -39.695,22.422 -62.617,19.793 -91.426,13.781 -13.578,-2.832 -51.355,-23.789 -80.105,-51.902 L 502.688,682.727 C 443.109,623.145 355.863,562.457 211.98,656.898" /><path
             id="path80"
             style="fill:#ffffff;fill-opacity:1;fill-rule:nonzero;stroke:none"
             d="m 708.023,657.016 c 0.282,0.187 -49.976,49.976 -49.976,49.976 -43.203,-20.66 -79.973,-27.914 -110.305,-21.738 -25.484,5.101 -51.926,21.34 -79.297,48.711 L 363.027,839.379 c -34.351,34.351 -64.039,56.668 -102.968,69.996 -47.227,16.176 -117.954,14.934 -173.2231,-29.457 l 53.5391,-53.539 c 39.699,22.422 62.613,19.793 91.426,13.781 13.574,-2.832 51.359,-23.789 80.101,-51.902 L 417.32,682.836 c 59.578,-59.574 146.821,-120.262 290.703,-25.82" /><path
             id="path82"
             style="fill:#ffffff;fill-opacity:1;fill-rule:nonzero;stroke:none"
             d="m 261.855,706.773 c -0.183,0.282 -49.976,-49.976 -49.976,-49.976 20.664,-43.203 27.918,-79.973 21.734,-110.305 -5.093,-25.484 -21.328,-51.926 -48.707,-79.297 L 79.4922,361.777 C 45.1406,327.422 22.8281,297.734 9.5,258.809 -6.67969,211.582 -5.43359,140.859 38.9609,85.5859 l 53.5352,53.5351 c -22.4219,39.695 -19.7891,62.617 -13.7852,91.426 2.836,13.586 23.7891,51.367 51.9021,80.105 l 105.422,105.422 c 59.574,59.574 120.266,146.817 25.82,290.699" /></g></g></g></g></svg>