<?xml version="1.0" encoding="utf-8"?>
<!-- Generator: Adobe Illustrator 18.1.1, SVG Export Plug-In . SVG Version: 6.00 Build 0)  -->
<svg version="1.1" id="Layer_1" xmlns="http://www.w3.org/2000/svg" xmlns:xlink="http://www.w3.org/1999/xlink" x="0px" y="0px"
	 viewBox="41 151.3 923 293" enable-background="new 41 151.3 923 293" xml:space="preserve">
<title>ICP_4c_positive_right-aligned_new-01</title>
<desc>Created with Sketch.</desc>
<g id="Page-1_1_">
	<g id="ICP_4c_positive_right-aligned_new-01_1_">
		<g id="Layer_1_2_">
			<g id="Group_7_" transform="translate(371.931507, 0.000000)">
				<path id="Shape_61_" fill="#FFFFFF" d="M51.3,229.4c0,1.1-0.3,1.7-1.7,1.7h-4.8c-1.1,0-1.7-0.7-1.7-1.7v-75.2
					c0-1.1,0.3-1.7,1.7-1.7h4.8c1.4,0,1.7,0.7,1.7,1.7V229.4L51.3,229.4z"/>
				<path id="Shape_60_" fill="#FFFFFF" d="M122.3,229.4c0,1.1-0.3,1.7-1.7,1.7h-4.5c-0.7,0-1.4-0.3-1.7-0.7l-30.7-54.4
					c-2.4-4.5-3.7-7.2-4.1-7.5v61.2c0,1.1-0.3,1.7-1.7,1.7h-4.5c-1.4,0-1.7-0.7-1.7-1.7v-75.3c0-1.1,0.3-1.7,1.7-1.7h4.5
					c0.7,0,1.1,0.3,1.4,0.7l31.4,55.3c1.1,1.7,3.4,6.8,3.4,6.8v-61.5c0-1.1,0.3-1.7,1.7-1.7h4.5c1.4,0,1.7,0.7,1.7,1.7v75.3H122.3
					L122.3,229.4z"/>
				<path id="Shape_59_" fill="#FFFFFF" d="M192.9,229.4c0,1.1-0.3,1.7-1.7,1.7h-4.4c-0.7,0-1.4-0.3-1.7-0.7l-30.7-54.4
					c-2.4-4.5-3.7-7.2-4.1-7.5v61.2c0,1.1-0.3,1.7-1.7,1.7h-3.7c-1.4,0-1.7-0.7-1.7-1.7v-75.3c0-1.1,0.3-1.7,1.7-1.7h4.5
					c0.7,0,1.1,0.3,1.4,0.7l31.4,55.3c1.1,1.7,3.4,6.8,3.4,6.8v-61.5c0-1.1,0.3-1.7,1.7-1.7h4.5c1.4,0,1.7,0.7,1.7,1.7v75.3H192.9
					L192.9,229.4z"/>
				<path id="Shape_58_" fill="#FFFFFF" d="M212.7,168.6c0-9.2,6.2-16.8,25-16.8c19.1,0,25.3,7.5,25.3,16.8v46.8
					c0,9.2-5.8,16.8-25.3,16.8c-19.1,0-25-7.5-25-16.8V168.6L212.7,168.6z M254.3,169.6c0-6.8-4.8-11.3-16.7-11.3
					c-12.3,0-16.7,4.5-16.7,11.3v44.1c0,6.8,4.8,11.3,16.7,11.3c12.3,0,16.7-4.5,16.7-11.3V169.6L254.3,169.6z"/>
				<path id="Shape_57_" fill="#FFFFFF" d="M297,229.4l-22.8-75.2c-0.3-1.1,0-1.7,1.4-1.7h5.4c1.1,0,1.7,0.7,2,1.7l16.4,54.4
					c1.1,4.1,2.4,11.3,2.8,12.3c0-0.7,1.4-7.2,2.8-12l16.7-54.7c0.3-1.1,0.7-1.7,2-1.7h4.8c1.4,0,1.7,0.7,1.4,1.7l-23.3,75.2
					c-0.3,1.1-1.1,1.7-2,1.7h-5.1C298.1,231.1,297.3,230.8,297,229.4"/>
				<path id="Shape_56_" fill="#FFFFFF" d="M361.2,154.2l23.2,75.2c0.3,1.1,0,1.7-1.4,1.7H378c-1.1,0-1.7-0.7-2-1.7l-6.5-20.5h-26.7
					l-6.2,20.5c-0.3,1.1-0.7,1.7-2,1.7h-4.8c-1.1,0-1.7-0.7-1.4-1.7l22.8-75.2c0.3-1.1,1.1-1.7,2-1.7h5.1
					C360.2,152.5,360.9,153.2,361.2,154.2L361.2,154.2z M359.2,175.1c-1.1-3.7-2.8-12.6-2.8-14c0,0.7-1.4,9.2-2.8,13.7l-8.5,27.3
					H368L359.2,175.1L359.2,175.1z"/>
				<path id="Shape_55_" fill="#FFFFFF" d="M432.2,152.5c1.1,0,1.7,0.3,1.7,1.7v3.7c0,1.4-0.7,1.7-1.7,1.7h-19.8v70.1
					c0,1.1-0.3,1.7-1.7,1.7h-5.1c-1.4,0-1.7-0.7-1.7-1.7v-70.1H384c-1.4,0-1.7-0.3-1.7-1.7v-3.7c0-1.4,0.3-1.7,1.7-1.7H432.2
					L432.2,152.5z"/>
				<path id="Shape_54_" fill="#FFFFFF" d="M454.7,229.4c0,1.1-0.3,1.7-1.7,1.7h-4.8c-1.1,0-1.7-0.7-1.7-1.7v-75.2
					c0-1.1,0.3-1.7,1.7-1.7h4.8c1.4,0,1.7,0.7,1.7,1.7V229.4L454.7,229.4z"/>
				<path id="Shape_53_" fill="#FFFFFF" d="M474.2,168.6c0-9.2,6.2-16.8,25-16.8c19.1,0,25.3,7.5,25.3,16.8v46.8
					c0,9.2-5.8,16.8-25.3,16.8c-19.1,0-25-7.5-25-16.8V168.6L474.2,168.6z M516.1,169.6c0-6.8-4.8-11.3-16.7-11.3
					c-12.3,0-16.7,4.5-16.7,11.3v44.1c0,6.8,4.8,11.3,16.7,11.3c12.3,0,16.7-4.5,16.7-11.3V169.6L516.1,169.6z"/>
				<path id="Shape_52_" fill="#FFFFFF" d="M594,229.4c0,1.1-0.3,1.7-1.7,1.7h-4.5c-0.7,0-1.4-0.3-1.7-0.7l-30.7-54.4
					c-2.4-4.5-3.7-7.2-4.1-7.5v61.2c0,1.1-0.3,1.7-1.7,1.7h-4.5c-1.4,0-1.7-0.7-1.7-1.7v-75.3c0-1.1,0.3-1.7,1.7-1.7h4.5
					c0.7,0,1.1,0.3,1.4,0.7l31.4,55.3c1.1,1.7,3.4,6.8,3.4,6.8v-61.5c0-1.1,0.3-1.7,1.7-1.7h4.5c1.4,0,1.7,0.7,1.7,1.7v75.3H594
					L594,229.4z"/>
			</g>
			<g id="Group_6_" transform="translate(371.931507, 106.619444)">
				<path id="Shape_51_" fill="#FFFFFF" d="M91.9,215.4c0,9.2-5.4,16.8-24.2,16.8c-19.1,0-24.2-7.5-24.2-16.8v-46.8
					c0-9.2,5.4-16.8,24.2-16.8c19.1,0,24.2,7.5,24.2,16.8v5.8c0,1.4-0.3,1.7-1.7,1.7h-4.8c-1.4,0-1.7-0.7-1.7-1.7v-4.8
					c0-6.8-4.1-11.3-16.4-11.3c-12.3,0-16.4,4.5-16.4,11.3v44.1c0,6.8,4.1,11.3,16.4,11.3c12.3,0,16.4-4.5,16.4-11.3v-6.2
					c0-1.1,0.3-1.7,1.7-1.7h4.8c1.1,0,1.7,0.7,1.7,1.7V215.4L91.9,215.4z"/>
				<path id="Shape_50_" fill="#FFFFFF" d="M110,231.5c-1.1,0-1.4-0.7-1.4-1.7v-75.2c0-1.1,0.3-1.7,1.7-1.7h39.6
					c1.1,0,1.7,0.3,1.7,1.7v3.4c0,1.4-0.7,1.7-1.7,1.7h-33.1v27h30.7c1.4,0,1.7,0.3,1.7,1.7v3.4c0,1.4-0.3,1.7-1.7,1.7h-30.7v30.8
					h34.5c1.1,0,1.7,0.3,1.7,1.7v3.7c0,1.4-0.7,1.7-1.7,1.7H110L110,231.5z"/>
				<path id="Shape_49_" fill="#FFFFFF" d="M218.9,229.8c0,1.1-0.3,1.7-1.7,1.7h-4.5c-0.7,0-1.4-0.3-1.7-0.7l-30.7-54.4
					c-2.4-4.5-3.7-7.2-4.1-7.5v61.2c0,1.1-0.3,1.7-1.7,1.7H170c-1.4,0-1.7-0.7-1.7-1.7V155c0-1.1,0.3-1.7,1.7-1.7h4.5
					c0.7,0,1.1,0.3,1.4,0.7l31.4,55.3c1.1,1.7,3.4,6.8,3.4,6.8v-61.5c0-1.1,0.3-1.7,1.7-1.7h4.5c1.4,0,1.7,0.7,1.7,1.7v75.2H218.9
					L218.9,229.8z"/>
				<path id="Shape_48_" fill="#FFFFFF" d="M281.3,152.9c1.1,0,1.7,0.3,1.7,1.7v3.7c0,1.4-0.7,1.7-1.7,1.7h-19.8v70.1
					c0,1.1-0.3,1.7-1.7,1.7h-5.1c-1.4,0-1.7-0.7-1.7-1.7v-70.4h-19.8c-1.4,0-1.7-0.3-1.7-1.7v-3.7c0-1.4,0.3-1.7,1.7-1.7h48.1
					L281.3,152.9L281.3,152.9z"/>
				<path id="Shape_47_" fill="#FFFFFF" d="M297,231.5c-1.1,0-1.4-0.7-1.4-1.7v-75.2c0-1.1,0.3-1.7,1.7-1.7h39.6
					c1.1,0,1.7,0.3,1.7,1.7v3.4c0,1.4-0.7,1.7-1.7,1.7h-33.1v27h30.7c1.4,0,1.7,0.3,1.7,1.7v3.4c0,1.4-0.3,1.7-1.7,1.7h-30.7v30.8
					h34.5c1.1,0,1.7,0.3,1.7,1.7v3.7c0,1.4-0.7,1.7-1.7,1.7H297L297,231.5z"/>
				<path id="Shape_46_" fill="#FFFFFF" d="M364.3,199.4v30.4c0,1.1-0.3,1.7-1.7,1.7h-4.8c-1.1,0-1.7-0.7-1.7-1.7v-75.2
					c0-1.1,0.3-1.7,1.4-1.7h22.8c19.1,0,25.3,7.5,25.3,16.8v13c0,7.2-3.7,13.3-14.3,15.7l15,31.4c0.3,1.1-0.3,1.7-1.7,1.7h-4.9
					c-1.4,0-1.4-0.7-2-1.7l-14.3-30.4h-2.8H364.3L364.3,199.4L364.3,199.4z M364.3,159.8v32.8h16.4c12.3,0,16.7-4.5,16.7-11.3V171
					c0-6.8-4.5-11.3-16.7-11.3L364.3,159.8L364.3,159.8L364.3,159.8z"/>
			</g>
			<g id="Group_5_" transform="translate(371.118721, 211.611111)">
				<path id="Shape_45_" fill="#FFFFFF" stroke="#FFFFFF" stroke-miterlimit="10" d="M90.3,230.7c0,0.7-0.3,1.1-1.1,1.1h-1.7
					c-0.3,0-0.7,0-1.1-0.3l-35.8-63.9c-1.4-2-3.4-6.2-3.4-6.5v69.8c0,0.7-0.3,1.1-1.1,1.1h-1.6c-0.7,0-1.1-0.3-1.1-1.1v-76.9
					c0-0.7,0.3-1.1,1.1-1.1h1.7c0.7,0,0.7,0,1.1,0.3l35.8,64.3l3.4,6.2v-69.8c0-0.7,0.3-1.1,1.1-1.1h1.7c0.7,0,1.1,0.3,1.1,1.1
					L90.3,230.7L90.3,230.7z"/>
				<path id="Shape_44_" fill="#FFFFFF" stroke="#FFFFFF" stroke-miterlimit="10" d="M114.9,231.8c-0.7,0-1.1-0.3-1.1-1.1v-76.9
					c0-0.7,0.3-1.1,1.1-1.1h39.6c0.7,0,1.1,0.3,1.1,1.1v1.4c0,0.7-0.3,1.1-1.1,1.1h-36.5v32.1h34.5c0.7,0,1.1,0.3,1.1,1.1v1.4
					c0,0.7-0.3,1.1-1.1,1.1h-34.5v36.5h38.2c0.7,0,1.1,0.3,1.1,1.1v1.4c0,0.7-0.3,1.1-1.1,1.1L114.9,231.8L114.9,231.8L114.9,231.8z
					"/>
				<path id="Shape_43_" fill="#FFFFFF" stroke="#FFFFFF" stroke-miterlimit="10" d="M215.6,152.8c0.7,0,1.1,0.3,1.1,1.1v1.4
					c0,0.7-0.3,1.1-1.1,1.1h-22.2v74.5c0,0.7-0.3,1.1-1.1,1.1h-2c-0.7,0-1.1-0.3-1.1-1.1v-74.5h-21.9c-0.7,0-1.1-0.3-1.1-1.1v-1.4
					c0-0.7,0.3-1.1,1.1-1.1H215.6L215.6,152.8L215.6,152.8z"/>
				<path id="Shape_42_" fill="#FFFFFF" stroke="#FFFFFF" stroke-miterlimit="10" d="M282.8,217.1c0.7,3.1,1.7,7.9,1.7,7.9
					s0.7-4.1,1.7-7.9l16.4-63.2c0.3-0.7,0.3-1.1,1.1-1.1h1.7c0.7,0,1.1,0.3,0.7,1.1l-19.4,76.9c-0.3,0.7-0.7,1.1-1.4,1.1h-2
					c-0.7,0-1.1-0.3-1.4-1.1l-16.4-64.3c-0.7-2-1.4-5.8-1.4-6.8c0,0.3-0.7,3.4-1.4,6.8l-16.4,64.3c-0.3,0.7-0.7,1.1-1.4,1.1h-2
					c-0.7,0-1.1-0.3-1.4-1.1l-19.4-76.9c-0.3-0.7,0-1.1,1.1-1.1h1.7c0.7,0,1.1,0.3,1.4,1.1l16,63.2l1.7,7.9c0-0.3,1.1-4.8,1.7-7.9
					l16.4-63.2c0.3-0.7,0.3-1.1,1.1-1.1h1.7c0.7,0,1.1,0.3,1.1,1.1L282.8,217.1L282.8,217.1z"/>
				<path id="Shape_41_" fill="#FFFFFF" stroke="#FFFFFF" stroke-miterlimit="10" d="M319,167.5c0-8.9,5.1-15.7,23.2-15.7
					c18.1,0,23.2,6.8,23.2,15.7v49.2c0,8.9-5.1,15.7-23.2,15.7c-18.1,0-23.2-6.8-23.2-15.7V167.5L319,167.5z M361.3,168.2
					c0-7.5-4.5-12.6-19.4-12.6c-14.7,0-19.4,5.5-19.4,12.6v48.2c0,7.5,4.5,12.6,19.4,12.6c15,0,19.4-5.5,19.4-12.6V168.2
					L361.3,168.2z"/>
				<path id="Shape_40_" fill="#FFFFFF" stroke="#FFFFFF" stroke-miterlimit="10" d="M391.7,198.3v32.1c0,0.7-0.3,1.1-1.1,1.1h-1.7
					c-0.7,0-1.1-0.3-1.1-1.1v-76.6c0-0.7,0.3-1.1,1.1-1.1h22.2c18.1,0,23.6,6.8,23.6,15.7v14c0,7.5-3.7,13.3-15.4,15.4l16.7,32.8
					c0.3,0.7,0,1.1-1.1,1.1h-2c-0.7,0-1.1-0.3-1.4-1.1l-16.4-32.5h-4.1L391.7,198.3L391.7,198.3L391.7,198.3z M391.7,156.3v38.7
					h19.1c15,0,19.4-5.5,19.4-12.6V169c0-7.5-4.5-12.6-19.4-12.6L391.7,156.3L391.7,156.3L391.7,156.3z"/>
				<path id="Shape_39_" fill="#FFFFFF" stroke="#FFFFFF" stroke-miterlimit="10" d="M502.3,230.7c0.3,0.3,0,1.1-0.3,1.1h-2.8
					c-0.7,0-1.4-0.3-1.7-1.1l-33.5-37h-4.5v37c0,0.7-0.3,1.1-1.1,1.1h-1.7c-0.7,0-1.1-0.3-1.1-1.1v-76.9c0-0.7,0.3-1.1,1.1-1.1h1.7
					c0.7,0,1.1,0.3,1.1,1.1v36.5h4.5l30.4-37c0.3-0.3,1.1-1.1,1.7-1.1h2c0.7,0,1.1,0.3,0.3,1.1l-31.4,37.9L502.3,230.7L502.3,230.7z
					"/>
			</g>
			<g id="Group_4_">
				<path id="Shape_38_" fill="#FFFFFF" d="M251.6,218.8l15.7,15.7c-6.5,13.7-8.9,25.3-6.8,34.8c1.7,8.2,6.8,16.4,15.4,25l33.5,33.5
					c10.9,10.9,18.1,20.2,22.2,32.5c5.1,15.1,4.8,37.3-9.2,55l-17.1-17.1c7.2-12.6,6.2-19.9,4.5-29.1c-1.1-4.5-7.5-16.4-16.4-25.3
					l-33.5-33.5C241,292,221.6,264.3,251.6,218.8"/>
				<path id="Shape_37_" fill="#FFFFFF" d="M126.7,375.4L111,359.6c6.5-13.7,8.9-25.3,6.8-34.8c-1.7-8.2-6.8-16.4-15.4-25
					l-33.5-33.5c-10.9-10.9-18.1-20.2-22.2-32.5c-5.1-15.1-4.8-37.3,9.2-55L73,195.9c-7.2,12.6-6.2,19.9-4.5,29.1
					c1.1,4.5,7.5,16.4,16.4,25.3l33.5,33.5C137.3,302.3,156.4,329.9,126.7,375.4"/>
				<path id="Shape_36_" fill="#FFFFFF" d="M267,359.6l-15.7,15.7c-13.7-6.5-25.3-8.9-34.8-6.8c-8.2,1.7-16.4,6.8-25,15.4
					l-33.5,33.5c-10.9,10.9-20.2,18.1-32.4,22.2c-15,5.1-37.2,4.8-54.9-9.2l17.1-17.1c12.6,7.2,19.8,6.2,29,4.5
					c4.5-1.1,16.4-7.5,25.3-16.4l33.5-33.5C193.9,349.1,221.6,329.9,267,359.6"/>
				<path id="Shape_35_" fill="#FFFFFF" d="M251.2,375.4l15.7-15.7c-6.5-13.7-8.9-25.3-6.8-34.8c1.7-8.2,6.8-16.4,15.4-25l33.5-33.5
					c10.9-10.9,18.1-20.2,22.2-32.5c5.1-15.1,4.8-37.3-9.2-55l-17.1,17.1c7.2,12.6,6.2,19.9,4.5,29.1c-1.1,4.5-7.5,16.4-16.4,25.3
					l-33.5,33.5C240.7,302.3,221.2,329.9,251.2,375.4"/>
				<path id="Shape_34_" fill="#FFFFFF" d="M111,359.6l15.7,15.7c13.7-6.5,25.3-8.9,34.8-6.8c8.2,1.7,16.4,6.8,25,15.4l33.5,33.5
					c10.9,10.9,20.2,18.1,32.4,22.2c15,5.1,37.2,4.8,54.9-9.2l-17.1-17.1c-12.6,7.2-19.8,6.2-29,4.5c-4.5-1.1-16.4-7.5-25.3-16.4
					l-33.5-33.5C184,349.1,156.4,329.5,111,359.6"/>
				<path id="Shape_33_" fill="#FFFFFF" d="M110.3,234.6l15.7-15.7c13.7,6.5,25.3,8.9,34.8,6.8c8.2-1.7,16.4-6.8,25-15.4l33.5-33.5
					c10.9-10.9,20.2-18.1,32.4-22.2c15-5.1,37.2-4.8,54.9,9.2l-17.1,17.1c-12.6-7.2-19.8-6.2-29-4.5c-4.5,1.1-16.4,7.5-25.3,16.4
					l-32.8,33.5C183.7,245.1,156.1,264.3,110.3,234.6"/>
				<path id="Shape_32_" fill="#FFFFFF" d="M267.3,234.6l-15.7-15.7c-13.7,6.5-25.3,8.9-34.8,6.8c-8.2-1.7-16.4-6.8-25-15.4
					l-33.5-33.5c-10.9-10.9-20.2-18.1-32.4-22.2c-15-5.1-37.2-4.8-54.9,9.2l17.1,17.1c12.6-7.2,19.8-6.2,29-4.5
					c4.5,1.1,16.4,7.5,25.3,16.4l33.5,33.5C194.3,245.1,221.9,264.3,267.3,234.6"/>
				<path id="Shape_31_" fill="#FFFFFF" d="M126.3,218.8l-15.7,15.7c6.5,13.7,8.9,25.3,6.8,34.8c-1.7,8.2-6.8,16.4-15.4,25
					l-33.4,33.5c-10.9,10.9-18.1,20.2-22.2,32.5c-5.1,15.1-4.8,37.3,9.2,55l17.1-17.1c-7.2-12.6-6.2-19.9-4.5-29.1
					c1.1-4.5,7.5-16.4,16.4-25.3l33.5-33.5C137,292,156.1,264.3,126.3,218.8"/>
			</g>
		</g>
	</g>
</g>
</svg>
