<?xml version="1.0" encoding="UTF-8" standalone="no"?>
<svg viewBox="0 0 220 220" class="detailIcon" version="1.1" xmlns="http://www.w3.org/2000/svg" xmlns:xlink="http://www.w3.org/1999/xlink">
    <!-- Generator: Sketch 3.6.1 (26313) - http://www.bohemiancoding.com/sketch -->
    <title>icons copy 5</title>
    <desc>Created with Sketch.</desc>
    <defs></defs>
    <g id="Page-1" stroke="none" stroke-width="1" fill="none" fill-rule="evenodd">
        <g id="Desktop-Copy-19" transform="translate(-402.000000, -2141.000000)">
            <g id="icons-copy-5" transform="translate(402.000000, 2141.000000)" fill="#FFFFFF">
                <g id="Page-1">
                    <path d="M110.149347,219.853118 C170.603266,219.853118 219.608198,170.795821 219.608198,110.277303 C219.608198,49.7587844 170.603266,0.701487811 110.149347,0.701487811 C49.6954285,0.701487811 0.690497275,49.7587844 0.690497275,110.277303 C0.690497275,170.795821 49.6954285,219.853118 110.149347,219.853118 L110.149347,219.853118 Z" id="Stroke-8"></path>
                </g>
            </g>
            <g id="flag" transform="translate(466.000000, 2191.000000)" fill="#000000">
                <path class="cube" d="M104.02552,9.58278189 C103.376433,8.81566175 102.606809,8.43176727 101.717215,8.43176727 C101.272417,8.43176727 100.34038,8.85779651 98.9216689,9.70584214 C97.4995623,10.5538878 95.9965321,11.5055983 94.4052215,12.5569609 C92.8144768,13.6083234 90.9345573,14.5560211 88.7626334,15.4074108 C86.587314,16.2554564 84.5806329,16.6774728 82.7329696,16.6774728 C81.0222541,16.6774728 79.5158285,16.2942471 78.2170882,15.5264582 C73.9083261,13.1441723 70.1615027,11.3631427 66.9794474,10.1927327 C63.797958,9.01897868 60.3787906,8.43176727 56.7162863,8.43176727 C50.3883933,8.43176727 50.0680939,10.1960767 41.9966633,15.0502685 C40.0126181,16.2200097 38.2747394,17.7522436 37.5571783,18.3160468 C36.4955501,19.2490307 35.9664336,20.3579106 35.9664336,21.650712 L35.9664336,55.1378136 C35.9664336,56.1891762 36.2906943,57.0987519 36.9403474,57.8665409 C37.5894346,58.633661 38.3590585,59.0175555 39.2486532,59.0175555 C39.7941807,59.0175555 40.3595148,58.836978 40.9435235,58.4724789 C50.2457865,52.5709373 51.690529,49.6201666 58.2555341,49.6201666 C60.7522846,49.6201666 63.1907474,50.0655912 65.5675271,50.9517587 C67.9471363,51.8419391 69.9215611,52.813045 71.4958947,53.8644076 C73.0673988,54.9157701 74.9246824,55.8862072 77.0609546,56.7730436 C79.2006223,57.663224 81.3108631,58.1079798 83.3984679,58.1079798 C88.6681281,58.1079798 94.9767805,55.7638158 102.334045,51.074819 C103.255896,50.5070029 103.931581,49.9505566 104.359967,49.4054799 C104.788919,48.8604033 105,48.0812446 105,47.0726856 L105,12.3148532 C105,11.2634906 104.675173,10.3545837 104.02552,9.58278189" id="Fill-1"></path>
                <path class="cube" d="M30.0645985,116.116107 L30.0645985,15.1043749 C32.6560796,13.5661218 33.955506,11.3443492 33.955506,8.43170039 C33.955506,6.29085333 33.1942123,4.46033212 31.6756459,2.9448184 C30.1570796,1.42863586 28.3228712,0.668872585 26.1777119,0.668872585 C24.0285317,0.668872585 22.1983442,1.42863586 20.6791077,2.9448184 C19.1565204,4.46033212 18.3992477,6.29085333 18.3992477,8.43170039 C18.3992477,11.3443492 19.6946532,13.5661218 22.2868044,15.1043749 L22.2868044,116.094705 C9.70736516,116.38296 0.000201045856,118.207462 0.000201045856,120.417196 C0.000201045856,122.830916 11.534872,124.787842 25.7608768,124.787842 C39.9875518,124.787842 51.5222228,122.830916 51.5222228,120.417196 C51.5222228,118.256285 42.2379251,116.464555 30.0645985,116.116107" id="Fill-4"></path>
            </g>
        </g>
    </g>
</svg>
