<?xml version="1.0" encoding="UTF-8" standalone="no"?>
<svg class="detailIcon" viewBox="0 0 220 220" version="1.1" xmlns="http://www.w3.org/2000/svg" xmlns:xlink="http://www.w3.org/1999/xlink">
    <!-- Generator: Sketch 3.6.1 (26313) - http://www.bohemiancoding.com/sketch -->
    <title>icons copy 2</title>
    <desc>Created with Sketch.</desc>
    <defs></defs>
    <g id="Page-1" stroke="none" stroke-width="1" fill="none" fill-rule="evenodd">
        <g id="Desktop-Copy-19" transform="translate(-402.000000, -1369.000000)">
            <g id="icons-copy-2" transform="translate(402.000000, 1369.000000)" fill="#FFFFFF">
                <g id="Page-1">
                    <path d="M110.149347,219.853118 C170.603266,219.853118 219.608198,170.795821 219.608198,110.277303 C219.608198,49.7587844 170.603266,0.701487811 110.149347,0.701487811 C49.6954285,0.701487811 0.690497275,49.7587844 0.690497275,110.277303 C0.690497275,170.795821 49.6954285,219.853118 110.149347,219.853118 L110.149347,219.853118 Z" id="Stroke-8"></path>
                </g>
            </g>
            <g id="industry" transform="translate(461.000000, 1401.000000)" fill="#000000">
                <path class="cube" d="M89.7577019,109.544247 C89.7577019,109.860028 89.5376058,110.1187 89.2710673,110.1187 L69.8427019,110.1187 C69.5768365,110.1187 69.3601058,109.860028 69.3601058,109.544247 L69.3601058,95.7782 C69.3601058,95.46645 69.5768365,95.2044188 69.8427019,95.2044188 L89.2710673,95.2044188 C89.5376058,95.2044188 89.7577019,95.4624188 89.7577019,95.7782 L89.7577019,109.544247 Z M62.6057788,109.544247 C62.6098173,109.860028 62.3897212,110.1187 62.1272212,110.1187 L42.6954904,110.1187 C42.4289519,110.1187 42.2122212,109.860028 42.2122212,109.544247 L42.2122212,95.7782 C42.2122212,95.46645 42.4289519,95.2044188 42.6954904,95.2044188 L62.1231827,95.2044188 C62.3897212,95.2044188 62.6057788,95.4624188 62.6057788,95.7782 L62.6057788,109.544247 Z M35.4619327,109.544247 C35.4619327,109.860028 35.245875,110.1187 34.9752981,110.1187 L15.5509712,110.1187 C15.2844327,110.1187 15.0643365,109.860028 15.0643365,109.544247 L15.0643365,95.7782 C15.0643365,95.46645 15.2844327,95.2044188 15.5509712,95.2044188 L34.9752981,95.2044188 C35.245875,95.2044188 35.4619327,95.4624188 35.4619327,95.7782 L35.4619327,109.544247 Z M104.721548,83.4472781 L104.721548,61.7524344 C103.398952,60.9649969 103.58001,61.0731688 102.257413,60.2850594 L76.4980865,74.1700281 C75.5699135,74.6712469 74.4418365,73.9993719 74.4418365,72.9458719 L74.4418365,61.7262313 C73.1387596,60.9401375 73.2942404,61.0335281 71.9911635,60.2474344 L45.2740481,74.2506531 C44.345875,74.7370906 43.2319327,74.0652156 43.2319327,73.0191063 L43.2319327,61.9647469 C41.755875,61.1598406 42.1334712,61.3654344 40.6580865,60.5598563 L21.4868365,72.8296375 C20.5862596,73.4061063 19.3976058,72.7967156 19.3424135,71.73045 L17.5924135,42.8237 C16.8668365,42.1363719 16.4401058,41.7319031 15.7145288,41.0439031 L4.43241346,41.0439031 C3.72097115,41.71645 3.26529808,42.14645 2.55452885,42.818325 L0.000201923078,84.603575 L0.0924134615,84.603575 L0.0924134615,127.446356 C0.0924134615,128.214309 0.717028846,128.837138 1.48635577,128.837138 L103.335683,128.837138 C104.105683,128.837138 104.729625,128.214309 104.729625,127.446356 L104.729625,83.4472781 L104.721548,83.4472781 Z" id="Fill-1"></path>
                <path class="cube" d="M19.9093462,30.6903766 C20.7628077,29.9654234 21.4466538,29.1296109 21.9985769,28.2541578 C22.7981923,28.3851734 23.6321346,28.4429547 24.4896346,28.4046578 C27.7291538,28.2501266 30.6489615,26.8237359 32.7186731,24.6885172 C35.0899231,26.0913922 37.9552115,26.8895797 41.0405962,26.8391891 C49.2891538,26.7122047 56.0165577,20.5988141 56.063,13.1893766 C56.1128077,5.78061094 49.4628077,-0.125170313 41.21425,0.0024859375 C35.2945385,0.0945328125 30.1778077,3.27518906 27.7291538,7.79690781 C26.7794423,7.60004844 25.7832885,7.50329844 24.7440577,7.55368906 C18.9360769,7.82781406 14.1128077,12.1681266 13.4875192,17.4645172 C12.3446346,17.8656266 11.228,18.4824078 10.2204038,19.3377047 C6.45521154,22.5452359 5.56675,27.6837359 8.24290385,30.8173609 C10.9190577,33.9516578 16.1407885,33.8979078 19.9093462,30.6903766" id="Fill-4"></path>
            </g>
        </g>
    </g>
</svg>
