<?xml version="1.0" encoding="UTF-8" standalone="no"?>
<svg class="detailIcon" viewBox="0 0 220 220" version="1.1" xmlns="http://www.w3.org/2000/svg" xmlns:xlink="http://www.w3.org/1999/xlink">
    <!-- Generator: Sketch 3.6.1 (26313) - http://www.bohemiancoding.com/sketch -->
    <title>icons copy 3</title>
    <desc>Created with Sketch.</desc>
    <defs></defs>
    <g id="Page-1" stroke="none" stroke-width="1" fill="none" fill-rule="evenodd">
        <g id="Desktop-Copy-19" transform="translate(-402.000000, -1755.000000)">
            <g id="icons-copy-3" transform="translate(402.000000, 1755.000000)" fill="#FFFFFF">
                <g id="Page-1">
                    <path d="M110.149347,219.853118 C170.603266,219.853118 219.608198,170.795821 219.608198,110.277303 C219.608198,49.7587844 170.603266,0.701487811 110.149347,0.701487811 C49.6954285,0.701487811 0.690497275,49.7587844 0.690497275,110.277303 C0.690497275,170.795821 49.6954285,219.853118 110.149347,219.853118 L110.149347,219.853118 Z" id="Stroke-8"></path>
                </g>
            </g>
            <g id="pin" transform="translate(472.000000, 1808.000000)" fill="#000000">
                <path class="cube" d="M54.8132786,55.0386298 C50.8587429,59.0094393 46.086975,60.9962964 40.497975,60.9962964 C34.908975,60.9962964 30.1372071,59.0094393 26.1826714,55.0386298 C22.2281357,51.0678202 20.2486982,46.2764155 20.2486982,40.6644155 C20.2486982,35.0524155 22.2281357,30.2610107 26.1826714,26.2902012 C30.1372071,22.3193917 34.908975,20.3318083 40.497975,20.3318083 C46.086975,20.3318083 50.8587429,22.3193917 54.8132786,26.2902012 C58.7678143,30.2610107 60.7465286,35.0524155 60.7465286,40.6644155 C60.7465286,46.2764155 58.7678143,51.0678202 54.8132786,55.0386298 M69.1329214,11.9116298 C61.2202339,3.9707369 51.675975,-7.26190476e-05 40.497975,-7.26190476e-05 C29.3192518,-7.26190476e-05 19.7757161,3.9707369 11.8630286,11.9116298 C3.95468036,19.857606 0.000144642858,29.4404155 0.000144642858,40.6644155 C0.000144642858,46.434725 0.871617857,51.1760226 2.610225,54.8803202 L31.4816625,116.355975 C32.2699661,118.101737 33.4979839,119.477142 35.1577607,120.485094 C36.8218768,121.489415 38.5973679,121.993392 40.497975,121.993392 C42.3942429,121.993392 44.1740732,121.489415 45.8381893,120.485094 C47.4979661,119.477142 48.7512964,118.101737 49.5931179,116.355975 L78.385725,54.8803202 C80.1243321,51.1760226 80.9958054,46.434725 80.9958054,40.6644155 C80.9958054,29.4404155 77.0412696,19.857606 69.1329214,11.9116298" id="Fill-1"></path>
            </g>
        </g>
    </g>
</svg>
