<?xml version="1.0" encoding="UTF-8" standalone="no"?>
<svg class="detailIcon" viewBox="0 0 220 220" version="1.1" xmlns="http://www.w3.org/2000/svg" xmlns:xlink="http://www.w3.org/1999/xlink">
    <!-- Generator: Sketch 3.6.1 (26313) - http://www.bohemiancoding.com/sketch -->
    <title>icons copy 4</title>
    <desc>Created with Sketch.</desc>
    <defs></defs>
    <g id="Page-1" stroke="none" stroke-width="1" fill="none" fill-rule="evenodd">
        <g id="Desktop-Copy-19" transform="translate(-402.000000, -983.000000)">
            <g id="icons-copy-4" transform="translate(402.000000, 983.000000)" fill="#FFFFFF">
                <g id="Page-1">
                    <path d="M110.149347,219.853118 C170.603266,219.853118 219.608198,170.795821 219.608198,110.277303 C219.608198,49.7587844 170.603266,0.701487811 110.149347,0.701487811 C49.6954285,0.701487811 0.690497275,49.7587844 0.690497275,110.277303 C0.690497275,170.795821 49.6954285,219.853118 110.149347,219.853118 L110.149347,219.853118 Z" id="Stroke-8"></path>
                </g>
            </g>
            <path class="cube" d="M538.733225,1138.46411 L553.464113,1138.46411 L553.464113,1119.34844 L538.733225,1119.34844 L538.733225,1138.46411 Z M470.571299,1138.46411 L485.301537,1138.46411 L485.301537,1119.34844 L470.571299,1119.34844 L470.571299,1138.46411 Z M470.57065,1089.5237 L485.300888,1089.5237 L485.300888,1070.72943 L470.57065,1070.72943 L470.57065,1089.5237 Z M485.643723,1042.46888 C485.643723,1041.95852 485.826829,1041.51894 486.202779,1041.14299 C486.575483,1040.77029 487.015065,1040.58393 487.525423,1040.58393 L491.295314,1040.58393 C491.805672,1040.58393 492.245254,1040.77029 492.617958,1041.14299 C492.990662,1041.51894 493.176364,1041.95852 493.176364,1042.46888 L493.176364,1059.423 C493.176364,1059.93336 492.990662,1060.37684 492.617958,1060.74889 C492.245254,1061.1216 491.805672,1061.30795 491.295314,1061.30795 L487.525423,1061.30795 C487.015065,1061.30795 486.575483,1061.1216 486.202779,1060.74889 C485.826829,1060.37684 485.643723,1059.93336 485.643723,1059.423 L485.643723,1042.46888 Z M492.751716,1089.5237 L508.293591,1089.5237 L508.293591,1070.72943 L492.751716,1070.72943 L492.751716,1089.5237 Z M515.744418,1089.5237 L531.282398,1089.5237 L531.282398,1070.72943 L515.744418,1070.72943 L515.744418,1089.5237 Z M530.858398,1042.46888 C530.858398,1041.95852 531.04475,1041.51894 531.417454,1041.14299 C531.789508,1040.77029 532.22974,1040.58393 532.740098,1040.58393 L536.509989,1040.58393 C537.020347,1040.58393 537.459929,1040.77029 537.832633,1041.14299 C538.205337,1041.51894 538.394935,1041.95852 538.394935,1042.46888 L538.394935,1059.423 C538.394935,1059.93336 538.205337,1060.37684 537.832633,1060.74889 C537.459929,1061.1216 537.020347,1061.30795 536.509989,1061.30795 L532.740098,1061.30795 C532.22974,1061.30795 531.789508,1061.1216 531.417454,1060.74889 C531.04475,1060.37684 530.858398,1059.93336 530.858398,1059.423 L530.858398,1042.46888 Z M538.733225,1089.5237 L553.464113,1089.5237 L553.464113,1070.72943 L538.733225,1070.72943 L538.733225,1089.5237 Z M538.733225,1111.89761 L553.464113,1111.89761 L553.464113,1096.97453 L538.733225,1096.97453 L538.733225,1111.89761 Z M515.744418,1138.46411 L531.282398,1138.46411 L531.282398,1119.34844 L515.744418,1119.34844 L515.744418,1138.46411 Z M492.751716,1138.46411 L508.293591,1138.46411 L508.293591,1119.34844 L492.751716,1119.34844 L492.751716,1138.46411 Z M492.751716,1111.89761 L508.293591,1111.89761 L508.293591,1096.97453 L492.751716,1096.97453 L492.751716,1111.89761 Z M515.744418,1111.89761 L531.282398,1111.89761 L531.282398,1096.97453 L515.744418,1096.97453 L515.744418,1111.89761 Z M470.571299,1111.89761 L485.301537,1111.89761 L485.301537,1096.97453 L470.571299,1096.97453 L470.571299,1111.89761 Z M558.765076,1050.35929 C557.271015,1048.86523 555.505542,1048.12047 553.464113,1048.12047 L545.927576,1048.12047 L545.927576,1042.46888 C545.927576,1039.88008 545.007504,1037.66334 543.163465,1035.8154 C541.31553,1033.97137 539.098787,1033.0474 536.509989,1033.0474 L532.740098,1033.0474 C530.150651,1033.0474 527.933908,1033.97137 526.089869,1035.8154 C524.241933,1037.66334 523.322511,1039.88008 523.322511,1042.46888 L523.322511,1048.12047 L500.712901,1048.12047 L500.712901,1042.46888 C500.712901,1039.88008 499.792829,1037.66334 497.94879,1035.8154 C496.100855,1033.97137 493.884112,1033.0474 491.295314,1033.0474 L487.525423,1033.0474 C484.935976,1033.0474 482.719233,1033.97137 480.871947,1035.8154 C479.027908,1037.66334 478.107836,1039.88008 478.107836,1042.46888 L478.107836,1048.12047 L470.571299,1048.12047 C468.52987,1048.12047 466.763748,1048.86523 465.273582,1050.35929 C463.78017,1051.84946 463.034762,1053.61493 463.034762,1055.65636 L463.034762,1138.46736 C463.034762,1140.50489 463.78017,1142.27101 465.273582,1143.76508 C466.763748,1145.25524 468.52987,1146 470.571299,1146 L553.464113,1146 C555.505542,1146 557.271015,1145.25524 558.765076,1143.76508 C560.255242,1142.27101 561,1140.50489 561,1138.46736 L561,1055.65636 C561,1053.61493 560.255242,1051.84946 558.765076,1050.35929 L558.765076,1050.35929 Z" id="calendar" fill="#000000"></path>
        </g>
    </g>
</svg>
