<?xml version="1.0" encoding="UTF-8" standalone="no"?>
<svg class="detailIcon" viewBox="0 0 220 220" version="1.1" xmlns="http://www.w3.org/2000/svg" xmlns:xlink="http://www.w3.org/1999/xlink">
    <!-- Generator: Sketch 39.1 (31720) - http://www.bohemiancoding.com/sketch -->
    <title>icons copy 15</title>
    <desc>Created with Sketch.</desc>
    <defs></defs>
    <g id="Page-1" stroke="none" stroke-width="1" fill="none" fill-rule="evenodd">
        <g id="icons-copy-14">
            <g id="Page-1" fill="#FFFFFF">
                <path d="M110.149347,219.853118 C170.603266,219.853118 219.608198,170.795821 219.608198,110.277303 C219.608198,49.7587844 170.603266,0.701487811 110.149347,0.701487811 C49.6954285,0.701487811 0.690497275,49.7587844 0.690497275,110.277303 C0.690497275,170.795821 49.6954285,219.853118 110.149347,219.853118 L110.149347,219.853118 Z" id="Stroke-8"></path>
            </g>
            <g id="Group" transform="translate(35.000000, 130.000000)" fill="#000000">
                <rect class="cube" id="Rectangle-Copy-2" x="110" y="0.987539557" width="40" height="19.9460542" rx="3"></rect>
                <rect class="cube" id="Rectangle-Copy" x="0" y="1" width="40" height="19.9460542" rx="3"></rect>
                <rect class="cube" id="Rectangle" x="55" y="1" width="40" height="19.9460542" rx="3"></rect>
            </g>
            <rect class="cube" id="Rectangle-Copy-3" fill="#000000" x="90" y="52" width="40" height="19.9460542" rx="3"></rect>
            <rect class="cube" id="Rectangle-2" fill="#000000" x="109" y="70" width="3" height="70.0820312"></rect>
            <rect class="cube" id="Rectangle-2" fill="#000000" x="54" y="99.4085832" width="3" height="33.6734481"></rect>
            <rect class="cube" id="Rectangle-2-Copy" fill="#000000" x="163" y="99.4085832" width="3" height="33.6734481"></rect>
            <rect class="cube" id="Rectangle-2" fill="#000000" transform="translate(110.000000, 100.500000) rotate(-270.000000) translate(-110.000000, -100.500000) " x="108.5" y="44.5" width="3" height="112"></rect>
        </g>
    </g>
</svg>