<?xml version="1.0" encoding="UTF-8" standalone="no"?>
<svg class="detailIcon" viewBox="0 0 220 220" version="1.1" xmlns="http://www.w3.org/2000/svg" xmlns:xlink="http://www.w3.org/1999/xlink">
    <!-- Generator: Sketch 3.6.1 (26313) - http://www.bohemiancoding.com/sketch -->
    <title>icons</title>
    <desc>Created with Sketch.</desc>
    <defs></defs>
    <g id="Page-1" stroke="none" stroke-width="1" fill="none" fill-rule="evenodd">
        <g id="Desktop-Copy-19" transform="translate(-402.000000, -211.000000)">
            <g id="icons" transform="translate(402.000000, 211.000000)" fill="#FFFFFF">
                <g id="Page-1">
                    <path d="M110.149347,219.853118 C170.603266,219.853118 219.608198,170.795821 219.608198,110.277303 C219.608198,49.7587844 170.603266,0.701487811 110.149347,0.701487811 C49.6954285,0.701487811 0.690497275,49.7587844 0.690497275,110.277303 C0.690497275,170.795821 49.6954285,219.853118 110.149347,219.853118 L110.149347,219.853118 Z" id="Stroke-8"></path>
                </g>
            </g>
            <g id="portfolio" transform="translate(458.000000, 267.000000)" fill="#000000">
                <path class="cube" d="M64.2786008,39.6160721 L17.3249124,39.6160721 C15.62705,39.6160721 14.2490747,40.9893744 14.2490747,42.6814791 C14.2490747,44.3735837 15.62705,45.746886 17.3249124,45.746886 L64.2786008,45.746886 C65.9764633,45.746886 67.3544386,44.3735837 67.3544386,42.6814791 C67.3544386,40.9893744 65.9764633,39.6160721 64.2786008,39.6160721" id="Fill-1"></path>
                <path class="cube" d="M17.3236821,33.2858023 L41.1675762,33.2858023 C42.8695398,33.2858023 44.243414,31.9125 44.243414,30.2203953 C44.243414,28.5282907 42.8695398,27.1549884 41.1675762,27.1549884 L17.3236821,27.1549884 C15.6258196,27.1549884 14.2478443,28.5282907 14.2478443,30.2203953 C14.2478443,31.9125 15.6258196,33.2858023 17.3236821,33.2858023" id="Fill-3"></path>
                <path class="cube" d="M17.3236821,20.822675 L41.1675762,20.822675 C42.8695398,20.822675 44.243414,19.4493727 44.243414,17.757268 C44.243414,16.0651634 42.8695398,14.691861 41.1675762,14.691861 L17.3236821,14.691861 C15.6258196,14.691861 14.2478443,16.0651634 14.2478443,17.757268 C14.2478443,19.4493727 15.6258196,20.822675 17.3236821,20.822675" id="Fill-5"></path>
                <path class="cube" d="M64.2786008,52.0796081 L17.3249124,52.0796081 C15.62705,52.0796081 14.2490747,53.4529105 14.2490747,55.1450151 C14.2490747,56.8371198 15.62705,58.2104221 17.3249124,58.2104221 L64.2786008,58.2104221 C65.9764633,58.2104221 67.3544386,56.8371198 67.3544386,55.1450151 C67.3544386,53.4529105 65.9764633,52.0796081 64.2786008,52.0796081" id="Fill-7"></path>
                <path class="cube" d="M64.2786008,64.5406919 L17.3249124,64.5406919 C15.62705,64.5406919 14.2490747,65.9139942 14.2490747,67.6060988 C14.2490747,69.2982035 15.62705,70.6715058 17.3249124,70.6715058 L64.2786008,70.6715058 C65.9764633,70.6715058 67.3544386,69.2982035 67.3544386,67.6060988 C67.3544386,65.9139942 65.9764633,64.5406919 64.2786008,64.5406919" id="Fill-9"></path>
                <g id="Group-13" transform="translate(0.000000, 0.105536)">
                    <path class="cube" d="M102.153647,103.363372 L29.7853362,103.363372 L29.7853362,97.4900523 L93.1804026,97.4900523 C94.8823661,97.4900523 96.2603414,96.11675 96.2603414,94.4205581 L96.2603414,41.0334302 L102.153647,41.0334302 L102.153647,103.363372 Z M17.7403556,83.5117965 L76.8169458,83.5117965 C78.2892468,83.5117965 79.5400875,82.9845465 80.5694678,81.9341337 C81.5988482,80.8796337 82.1114878,79.6044244 82.1114878,78.1044186 L82.1114878,29.0292965 L90.1045648,29.0292965 L90.1045648,91.3551512 L17.7403556,91.3551512 L17.7403556,83.5117965 Z M7.9263826,7.75128488 L53.8670951,7.75128488 L53.8670951,23.9775058 C53.8670951,25.4815988 54.3797347,26.7568081 55.4132162,27.8113081 C56.4425966,28.8617209 57.6934373,29.3848837 59.1616372,29.3848837 L75.0534655,29.3848837 L75.0534655,76.2978721 L7.9263826,76.2978721 L7.9263826,7.75128488 Z M60.9292186,8.20496512 C61.995509,8.58098837 62.7501145,8.99379651 63.188934,9.44338953 L73.3966142,19.8657733 C73.8395349,20.3153663 74.2414443,21.0878488 74.6105449,22.1750465 L60.9292186,22.1750465 L60.9292186,8.20496512 Z M105.229484,34.9026163 L96.2603414,34.9026163 L96.2603414,25.9638895 C96.2603414,24.2676977 94.8823661,22.8984826 93.1804026,22.8984826 L81.9884543,22.8984826 C81.8572186,21.6845814 81.5783426,20.4093721 81.0082874,19.0197209 C80.2741874,17.2172616 79.3924473,15.7908256 78.3630669,14.7404128 L68.2128024,4.37116279 C67.1793209,3.32075 65.7849411,2.42156395 64.0173597,1.66951744 C62.2538794,0.91747093 60.6339382,0.541447674 59.1616372,0.541447674 L6.16290229,0.541447674 C4.69060129,0.541447674 3.43976061,1.06869767 2.41038025,2.11911047 C1.38099988,3.16952326 0.864259142,4.44881977 0.864259142,5.94882558 L0.864259142,78.1044186 C0.864259142,79.6044244 1.38099988,80.8796337 2.41038025,81.9341337 C3.43976061,82.9845465 4.69060129,83.5117965 6.16290229,83.5117965 L11.5886801,83.5117965 L11.5886801,94.4205581 C11.5886801,96.11675 12.9666554,97.4900523 14.6645178,97.4900523 L23.6336607,97.4900523 L23.6336607,106.428779 C23.6336607,108.120884 25.011636,109.494186 26.7094984,109.494186 L105.229484,109.494186 C106.927347,109.494186 108.305322,108.120884 108.305322,106.428779 L108.305322,37.9680233 C108.305322,36.2759186 106.927347,34.9026163 105.229484,34.9026163 L105.229484,34.9026163 Z" id="Fill-11"></path>
                </g>
            </g>
        </g>
    </g>
</svg>
