<?xml version="1.0" encoding="UTF-8" standalone="no"?>
<svg class="detailIcon" viewBox="0 0 220 220" version="1.1" xmlns="http://www.w3.org/2000/svg" xmlns:xlink="http://www.w3.org/1999/xlink">
    <!-- Generator: Sketch 3.6.1 (26313) - http://www.bohemiancoding.com/sketch -->
    <title>icons copy</title>
    <desc>Created with Sketch.</desc>
    <defs></defs>
    <g id="Page-1" stroke="none" stroke-width="1" fill="none" fill-rule="evenodd">
        <g id="Desktop-Copy-19" transform="translate(-402.000000, -597.000000)">
            <g id="icons-copy" transform="translate(402.000000, 597.000000)" fill="#FFFFFF">
                <g id="Page-1">
                    <path d="M110.149347,219.853118 C170.603266,219.853118 219.608198,170.795821 219.608198,110.277303 C219.608198,49.7587844 170.603266,0.701487811 110.149347,0.701487811 C49.6954285,0.701487811 0.690497275,49.7587844 0.690497275,110.277303 C0.690497275,170.795821 49.6954285,219.853118 110.149347,219.853118 L110.149347,219.853118 Z" id="Stroke-8"></path>
                </g>
            </g>
            <g id="mail" transform="translate(455.000000, 665.000000)" fill="#000000">
                <path class="cube" d="M104.941703,77.7409718 L7.66814355,77.7409718 L7.77810591,14.760507 L53.8195306,55.949662 C54.6536651,56.6927746 55.6919285,57.0597887 56.7301919,57.0597887 C56.8741758,57.0597887 57.0090468,56.9859014 57.1530306,56.9719718 C57.1864446,56.9725775 57.2174285,56.9913521 57.2508425,56.9913521 C58.3127995,56.9913521 59.3747565,56.6079859 60.2155737,55.8309577 L104.929552,14.4704085 L104.941703,38.7399718 L104.941703,77.7409718 Z M99.4526973,7.68307042 L56.9088048,47.0389718 L13.0064823,7.76604225 L81.5743962,7.76604225 L99.4526973,7.68307042 Z M111.027907,1.69940845 C109.891224,0.566267606 108.514568,0 106.890041,0 L87.4163747,0 L5.84191774,0 C4.22103602,0 2.84073495,0.566267606 1.70465968,1.69940845 C0.567976882,2.83194366 -6.07526872e-05,4.20430986 -6.07526872e-05,5.82377465 L-6.07526872e-05,71.785169 L-6.07526872e-05,79.6832394 C-6.07526872e-05,81.2990704 0.567976882,82.6750704 1.70465968,83.8076056 C2.84073495,84.9407465 4.22103602,85.5070141 5.84191774,85.5070141 L21.4681167,85.5070141 L106.890041,85.5070141 C108.514568,85.5070141 109.891224,84.9407465 111.027907,83.8076056 C112.163982,82.6750704 112.73202,81.2990704 112.73202,79.6832394 L112.73202,32.913169 L112.73202,5.82377465 C112.73202,4.20430986 112.163982,2.83194366 111.027907,1.69940845 L111.027907,1.69940845 Z" id="Fill-1"></path>
            </g>
        </g>
    </g>
</svg>
