<?xml version="1.0" encoding="iso-8859-1"?>
<!-- Generator: Adobe Illustrator 18.1.1, SVG Export Plug-In . SVG Version: 6.00 Build 0)  -->
<svg xmlns="http://www.w3.org/2000/svg" xmlns:xlink="http://www.w3.org/1999/xlink" version="1.1" id="Capa_1" x="0px" y="0px" viewBox="0 0 445.516 445.516" style="enable-background:new 0 0 445.516 445.516;" xml:space="preserve" width="512px" height="512px">
<g>
	<path d="M28.263,282.857l52.933,8.852c4.406,0.772,8.608-2.243,9.356-6.674   c0.74-4.43-2.243-8.624-6.674-9.356L9.47,263.235c-3.398-0.528-6.69,1.016-8.381,3.959c-1.699,2.934-1.39,6.617,0.78,9.234   l35.595,43.065c1.601,1.943,3.926,2.951,6.267,2.951c1.821,0,3.65-0.61,5.17-1.861c3.463-2.861,3.95-7.974,1.089-11.437   L28.263,282.857z" fill="#f1a040"/>
	<path d="M437.131,108.816c-15.436-8.722-49.503,1.008-73.726,14.623l-78.839,44.293L99.462,128.804   c-3.365-0.723-6.763,0.756-8.576,3.65c-1.805,2.894-1.609,6.609,0.496,9.307l79.189,101.461L56.973,325.305   c-3.633,2.626-4.454,7.706-1.829,11.347c1.585,2.203,4.072,3.365,6.6,3.365c0.569,0,1.154-0.065,1.723-0.179   c0.553,0.122,1.13,0.179,1.723,0.179h82.692c1.609,0,3.186-0.488,4.536-1.382l261.212-175.407   c20.411-13.705,32.327-28.962,31.872-40.838C445.275,116.571,442.309,111.759,437.131,108.816z M404.559,149.744L145.404,323.768   H86.862l100.063-72.304c1.788-1.292,2.975-3.26,3.284-5.446c0.309-2.187-0.285-4.406-1.642-6.145l-70.694-90.585l166.335,34.977   c1.943,0.415,3.926,0.098,5.657-0.87l81.505-45.788c25.605-14.396,51.316-18.289,57.867-14.745   C429.75,125.171,424.67,136.242,404.559,149.744z" fill="#f1a040"/>
</g>
<g>
</g>
<g>
</g>
<g>
</g>
<g>
</g>
<g>
</g>
<g>
</g>
<g>
</g>
<g>
</g>
<g>
</g>
<g>
</g>
<g>
</g>
<g>
</g>
<g>
</g>
<g>
</g>
<g>
</g>
</svg>
