<?xml version="1.0" encoding="iso-8859-1"?>
<!-- Generator: Adobe Illustrator 19.0.0, SVG Export Plug-In . SVG Version: 6.00 Build 0)  -->
<svg version="1.1" id="Layer_1" xmlns="http://www.w3.org/2000/svg" xmlns:xlink="http://www.w3.org/1999/xlink" x="0px" y="0px"
	 viewBox="0 0 489.4 489.4" style="enable-background:new 0 0 489.4 489.4;" xml:space="preserve">
<g>
	<g>
		<path d="M407,0H82.4C37,0,0,37,0,82.6v162.1c0,9.9,8.1,18,18,18h276.7L255,302.4c-7,7-7,18.4,0,25.5c3.5,3.5,8.1,5.3,12.7,5.3
			c4.6,0,9.2-1.8,12.7-5.3l70.4-70.4c7-7,7-18.4,0-25.5l-70.4-70.4c-7-7-18.4-7-25.5,0c-7,7-7,18.4,0,25.5l39.8,39.6H36V82.6
			C36,56.9,56.8,36,82.4,36H407c25.6,0,46.4,20.9,46.4,46.6v324.2c0,25.7-20.8,46.6-46.4,46.6H82.4c-25.6,0-46.4-20.9-46.4-46.6v-42
			c0-9.9-8.1-18-18-18c-9.9,0-18,8.1-18,18v42c0,45.5,37,82.6,82.4,82.6H407c45.4,0,82.4-37,82.4-82.6V82.6
			C489.4,37.1,452.4,0,407,0z"/>
	</g>
</g>
<g>
</g>
<g>
</g>
<g>
</g>
<g>
</g>
<g>
</g>
<g>
</g>
<g>
</g>
<g>
</g>
<g>
</g>
<g>
</g>
<g>
</g>
<g>
</g>
<g>
</g>
<g>
</g>
<g>
</g>
</svg>
