<?xml version="1.0" encoding="utf-8"?>
<!-- Generator: Adobe Illustrator 18.1.1, SVG Export Plug-In . SVG Version: 6.00 Build 0)  -->
<svg version="1.1" id="Layer_1" xmlns="http://www.w3.org/2000/svg" xmlns:xlink="http://www.w3.org/1999/xlink" x="0px" y="0px"
	 viewBox="0 0 120 59.4" enable-background="new 0 0 120 59.4" xml:space="preserve">
<g>
	<g>
		<g>
			<polyline fill-rule="evenodd" clip-rule="evenodd" fill="#FFFFFF" points="0,59.4 60.7,59.4 120,0 0,0 0,59.4 			"/>
		</g>
		<path fill="#333334" d="M71.2,11.2l-11.8,0v28.1L49.1,11.2H38.9l-8.8,23.5c-0.9-5.9-7.1-8-11.9-9.5c-3.2-1-6.6-2.5-6.5-4.2
			c0-1.4,1.8-2.6,5.3-2.4c2.4,0.1,4.5,0.3,8.6,2.3l4.1-7.1c-3.8-1.9-9.1-3.2-13.4-3.2h0c-5,0-9.2,1.6-11.8,4.3
			c-1.8,1.9-2.8,4.3-2.8,6.9c-0.1,3.6,1.3,6.2,4.1,8.2c2.4,1.7,5.4,2.9,8,3.7c3.3,1,6,1.9,5.9,3.8c0,0.7-0.3,1.3-0.8,1.8
			c-0.8,0.8-2.1,1.2-3.8,1.2c-3.3,0.1-5.8-0.5-9.8-2.8l-3.6,7.2c3.9,2.2,8.6,3.6,13.4,3.6l0.6,0c4.1-0.1,7.5-1.3,10.2-3.4
			c0.2-0.1,0.3-0.2,0.4-0.4l-1.2,3.2h10.7l1.8-5.5c1.9,0.6,4,1,6.3,1c2.2,0,4.3-0.3,6.2-0.9l1.7,5.4h17.5V36.5h3.8
			c9.2,0,14.7-4.7,14.7-12.6C87.8,15.2,82.5,11.2,71.2,11.2z M43.9,35.2c-1.4,0-2.7-0.2-3.8-0.7l3.7-11.8H44l3.7,11.9
			C46.5,35,45.3,35.2,43.9,35.2z M71.9,28.4h-2.6v-9.5h2.6c3.5,0,6.2,1.2,6.2,4.7C78.2,27.3,75.4,28.4,71.9,28.4"/>
	</g>
</g>
</svg>
