<svg class="rubix" viewBox="0 0 300 150">
    <g id="g-project-cube-final" stroke="none" strokeWidth="1" fill="none" fillRule="evenodd" opacity="0.75">
        <g id="project-cube-final">
            <path class="cube cubefill" d="M2.68614439,73.2745374 L13.9940078,78.9330396 C15.326359,79.6001762 16.4163688,78.7728634 16.4163688,77.094978 L16.4163688,62.852511 C16.4163688,61.1730396 15.326359,59.2551542 13.9940078,58.587489 L2.68614439,52.9284581 C1.35273951,52.2613216 0.263256585,53.089163 0.263256585,54.7681057 L0.263256585,69.0100441 C0.263256585,70.6889868 1.35273951,72.6074009 2.68614439,73.2745374 L2.68614439,73.2745374 Z" id="ds-Fill-1" fill="#4A4A4A"></path>
            <path class="cube cubefill" d="M2.68614439,73.2745374 L13.9940078,78.9330396 C15.326359,79.6001762 16.4163688,78.7728634 16.4163688,77.094978 L16.4163688,62.852511 C16.4163688,61.1730396 15.326359,59.2551542 13.9940078,58.587489 L2.68614439,52.9284581 C1.35273951,52.2613216 0.263256585,53.089163 0.263256585,54.7681057 L0.263256585,69.0100441 C0.263256585,70.6889868 1.35273951,72.6074009 2.68614439,73.2745374 L2.68614439,73.2745374 L2.68614439,73.2745374 Z" id="ds-Stroke-3"></path>
            <path class="cube cubefill" d="M2.68614439,50.6683348 L13.9940078,56.326837 C15.326359,56.9934449 16.4163688,56.1661322 16.4163688,54.4877181 L16.4163688,40.2452511 C16.4163688,38.566837 15.326359,36.6478943 13.9940078,35.9807577 L2.68614439,30.3222555 C1.35273951,29.6551189 0.263256585,30.4829604 0.263256585,32.1613744 L0.263256585,46.4038414 C0.263256585,48.0822555 1.35273951,50.0006696 2.68614439,50.6683348 L2.68614439,50.6683348 Z" id="ds-Fill-5" fill="#4A4A4A"></path>
            <path class="cube cubefill" d="M2.68614439,50.6683348 L13.9940078,56.326837 C15.326359,56.9934449 16.4163688,56.1661322 16.4163688,54.4877181 L16.4163688,40.2452511 C16.4163688,38.566837 15.326359,36.6478943 13.9940078,35.9807577 L2.68614439,30.3222555 C1.35273951,29.6551189 0.263256585,30.4829604 0.263256585,32.1613744 L0.263256585,46.4038414 C0.263256585,48.0822555 1.35273951,50.0006696 2.68614439,50.6683348 L2.68614439,50.6683348 L2.68614439,50.6683348 Z" id="ds-Stroke-7"></path>
            <path class="cube cubefill" d="M20.634638,104.862819 L31.9425015,110.521322 C33.2748527,111.189515 34.3648624,110.361145 34.3648624,108.682203 L34.3648624,94.440793 C34.3648624,92.7618502 33.2748527,90.8434361 31.9425015,90.1762996 L20.634638,84.5167401 C19.3012332,83.8501322 18.2117502,84.6774449 18.2117502,86.3563877 L18.2117502,100.598326 C18.2117502,102.277269 19.3012332,104.195683 20.634638,104.862819 L20.634638,104.862819 Z" id="ds-Stroke-9" fill="#4A4A4A"></path>
            <path class="cube cubefill" d="M20.634638,82.2569868 L31.9425015,87.915489 C33.2748527,88.5826256 34.3648624,87.7547841 34.3648624,86.07637 L34.3648624,71.8339031 C34.3648624,70.1549604 33.2748527,68.2365463 31.9425015,67.5694097 L20.634638,61.9109075 C19.3012332,61.2437709 18.2117502,62.0716123 18.2117502,63.7500264 L18.2117502,77.9924934 C18.2117502,79.6709075 19.3012332,81.5898502 20.634638,82.2569868" id="ds-Fill-11" fill="#4A4A4A"></path>
            <path class="cube cubefill" d="M20.634638,82.2569868 L31.9425015,87.915489 C33.2748527,88.5826256 34.3648624,87.7547841 34.3648624,86.07637 L34.3648624,71.8339031 C34.3648624,70.1549604 33.2748527,68.2365463 31.9425015,67.5694097 L20.634638,61.9109075 C19.3012332,61.2437709 18.2117502,62.0716123 18.2117502,63.7500264 L18.2117502,77.9924934 C18.2117502,79.6709075 19.3012332,81.5898502 20.634638,82.2569868 L20.634638,82.2569868 Z" id="ds-Stroke-13"></path>
            <path class="cube cubefill" d="M20.634638,59.6501498 L31.9425015,65.308652 C33.2748527,65.9768458 34.3648624,65.1484758 34.3648624,63.469533 L34.3648624,49.2281233 C34.3648624,47.5491806 33.2748527,45.6307665 31.9425015,44.9631013 L20.634638,39.3040705 C19.3012332,38.6374626 18.2117502,39.4647753 18.2117502,41.1437181 L18.2117502,55.3856564 C18.2117502,57.0640705 19.3012332,58.9830132 20.634638,59.6501498 L20.634638,59.6501498 Z" id="ds-Fill-15" fill="#4A4A4A"></path>
            <path class="cube cubefill" d="M20.634638,59.6501498 L31.9425015,65.308652 C33.2748527,65.9768458 34.3648624,65.1484758 34.3648624,63.469533 L34.3648624,49.2281233 C34.3648624,47.5491806 33.2748527,45.6307665 31.9425015,44.9631013 L20.634638,39.3040705 C19.3012332,38.6374626 18.2117502,39.4647753 18.2117502,41.1437181 L18.2117502,55.3856564 C18.2117502,57.0640705 19.3012332,58.9830132 20.634638,59.6501498 L20.634638,59.6501498 L20.634638,59.6501498 Z" id="ds-Stroke-17"></path>
            <path class="cube cubefill" d="M38.5832371,113.845956 L49.8911005,119.504458 C51.2234517,120.171595 52.3134615,119.344282 52.3134615,117.665339 L52.3134615,103.422872 C52.3134615,101.744458 51.2234517,99.8255154 49.8911005,99.1589075 L38.5832371,93.4998767 C37.250359,92.8332687 36.1603493,93.6605815 36.1603493,95.3395242 L36.1603493,109.581463 C36.1603493,111.260405 37.250359,113.179348 38.5832371,113.845956 L38.5832371,113.845956 L38.5832371,113.845956 Z" id="ds-Stroke-19" fill="#4A4A4A"></path>
            <path class="cube cubefill" d="M38.5832371,91.2389604 L49.8911005,96.8979912 C51.2234517,97.5656564 52.3134615,96.7383436 52.3134615,95.0583436 L52.3134615,80.8169339 C52.3134615,79.1379912 51.2234517,77.2185198 49.8911005,76.5529692 L38.5832371,70.8934097 C37.250359,70.2262731 36.1603493,71.0535859 36.1603493,72.7325286 L36.1603493,86.9749956 C36.1603493,88.6534097 37.250359,90.5723524 38.5832371,91.2389604 L38.5832371,91.2389604 L38.5832371,91.2389604 Z" id="ds-Stroke-21" fill="#4A4A4A"></path>
            <path class="cube cubefill" d="M38.5832371,68.6325463 L49.8911005,74.2910485 C51.2234517,74.958185 52.3134615,74.1308722 52.3134615,72.4519295 L52.3134615,58.2105198 C52.3134615,56.5315771 51.2234517,54.6121057 49.8911005,53.9460264 L38.5832371,48.286467 C37.250359,47.6193304 36.1603493,48.4471718 36.1603493,50.1261145 L36.1603493,64.3685815 C36.1603493,66.0469956 37.250359,67.9659383 38.5832371,68.6325463 L38.5832371,68.6325463 Z" id="ds-Fill-23" fill="#4A4A4A"></path>
            <path class="cube cubefill" d="M38.5832371,68.6325463 L49.8911005,74.2910485 C51.2234517,74.958185 52.3134615,74.1308722 52.3134615,72.4519295 L52.3134615,58.2105198 C52.3134615,56.5315771 51.2234517,54.6121057 49.8911005,53.9460264 L38.5832371,48.286467 C37.250359,47.6193304 36.1603493,48.4471718 36.1603493,50.1261145 L36.1603493,64.3685815 C36.1603493,66.0469956 37.250359,67.9659383 38.5832371,68.6325463 L38.5832371,68.6325463 L38.5832371,68.6325463 Z" id="ds-Stroke-25"></path>
            <path class="cube cubefill" d="M105.064402,73.2745374 L93.7565385,78.9330396 C92.4241873,79.6001762 91.3341776,78.7728634 91.3341776,77.0939207 L91.3341776,62.852511 C91.3341776,61.1735683 92.4241873,59.2551542 93.7565385,58.5880176 L105.064402,52.9284581 C106.39728,52.2618502 107.48729,53.089163 107.48729,54.7681057 L107.48729,69.0100441 C107.48729,70.6884581 106.39728,72.6074009 105.064402,73.2745374 L105.064402,73.2745374 Z" id="ds-Stroke-27" fill="#4A4A4A"></path>
            <path class="cube cubefill" d="M105.064402,50.6683348 L93.7565385,56.326837 C92.4241873,56.9934449 91.3341776,56.1661322 91.3341776,54.4877181 L91.3341776,40.2452511 C91.3341776,38.566837 92.4241873,36.6478943 93.7565385,35.9807577 L105.064402,30.3217269 C106.39728,29.6551189 107.48729,30.4829604 107.48729,32.1613744 L107.48729,46.4038414 C107.48729,48.0822555 106.39728,50.0011982 105.064402,50.6683348 L105.064402,50.6683348 Z" id="ds-Fill-29" fill="#4A4A4A"></path>
            <path class="cube cubefill" d="M105.064402,50.6683348 L93.7565385,56.326837 C92.4241873,56.9934449 91.3341776,56.1661322 91.3341776,54.4877181 L91.3341776,40.2452511 C91.3341776,38.566837 92.4241873,36.6478943 93.7565385,35.9807577 L105.064402,30.3217269 C106.39728,29.6551189 107.48729,30.4829604 107.48729,32.1613744 L107.48729,46.4038414 C107.48729,48.0822555 106.39728,50.0011982 105.064402,50.6683348 L105.064402,50.6683348 L105.064402,50.6683348 Z" id="ds-Stroke-31"></path>
            <path class="cube cubefill" d="M87.115961,104.862819 L75.8080976,110.521322 C74.4757463,111.189515 73.3857366,110.361145 73.3857366,108.682203 L73.3857366,94.440793 C73.3857366,92.7618502 74.4757463,90.8423789 75.8080976,90.1762996 L87.115961,84.5172687 C88.448839,83.8501322 89.5388488,84.6774449 89.5388488,86.3563877 L89.5388488,100.598855 C89.5388488,102.277269 88.448839,104.196211 87.115961,104.862819 L87.115961,104.862819 L87.115961,104.862819 Z" id="ds-Stroke-33" fill="#4A4A4A"></path>
            <path class="cube cubefill" d="M87.115961,82.2569868 L75.8080976,87.915489 C74.4757463,88.5826256 73.3857366,87.7553128 73.3857366,86.07637 L73.3857366,71.8349604 C73.3857366,70.1549604 74.4757463,68.2365463 75.8080976,67.5699383 L87.115961,61.9109075 C88.448839,61.2437709 89.5388488,62.0716123 89.5388488,63.7505551 L89.5388488,77.9924934 C89.5388488,79.6709075 88.448839,81.5898502 87.115961,82.2569868 L87.115961,82.2569868 Z" id="ds-Fill-35" fill="#4A4A4A"></path>
            <path class="cube cubefill" d="M87.115961,82.2569868 L75.8080976,87.915489 C74.4757463,88.5826256 73.3857366,87.7553128 73.3857366,86.07637 L73.3857366,71.8349604 C73.3857366,70.1549604 74.4757463,68.2365463 75.8080976,67.5699383 L87.115961,61.9109075 C88.448839,61.2437709 89.5388488,62.0716123 89.5388488,63.7505551 L89.5388488,77.9924934 C89.5388488,79.6709075 88.448839,81.5898502 87.115961,82.2569868 L87.115961,82.2569868 L87.115961,82.2569868 Z" id="ds-Stroke-37"></path>
            <path class="cube cubefill" d="M87.115961,59.650837 L75.8080976,65.3088106 C74.4757463,65.9759471 73.3857366,65.1486344 73.3857366,63.4702203 L73.3857366,49.2277533 C73.3857366,47.5488106 74.4757463,45.6303965 75.8080976,44.9632599 L87.115961,39.3042291 C88.448839,38.6376211 89.5388488,39.4654626 89.5388488,41.1438767 L89.5388488,55.3863436 C89.5388488,57.0647577 88.448839,58.9826432 87.115961,59.650837 L87.115961,59.650837 L87.115961,59.650837 Z" id="ds-Stroke-39" fill="#4A4A4A"></path>
            <path class="cube cubefill" d="M69.1674146,113.845956 L57.8595512,119.504458 C56.5272,120.171595 55.4371902,119.344282 55.4371902,117.665339 L55.4371902,103.422872 C55.4371902,101.744458 56.5272,99.8255154 57.8595512,99.1589075 L69.1674146,93.4998767 C70.5002927,92.8327401 71.5903024,93.6605815 71.5903024,95.3395242 L71.5903024,109.581463 C71.5903024,111.260405 70.5002927,113.179348 69.1674146,113.845956 L69.1674146,113.845956 L69.1674146,113.845956 Z" id="ds-Stroke-41" fill="#4A4A4A"></path>
            <path class="cube cubefill" d="M69.1674146,91.2389604 L57.8595512,96.8979912 C56.5272,97.5656564 55.4371902,96.7383436 55.4371902,95.0583436 L55.4371902,80.8169339 C55.4371902,79.1379912 56.5272,77.2195771 57.8595512,76.5529692 L69.1674146,70.8934097 C70.5002927,70.2262731 71.5903024,71.0535859 71.5903024,72.7325286 L71.5903024,86.9749956 C71.5903024,88.6534097 70.5002927,90.5723524 69.1674146,91.2389604 L69.1674146,91.2389604 L69.1674146,91.2389604 Z" id="ds-Stroke-43" fill="#4A4A4A"></path>
            <path class="cube cubefill" d="M69.1674146,68.6325463 L57.8595512,74.2910485 C56.5272,74.958185 55.4371902,74.1308722 55.4371902,72.4519295 L55.4371902,58.2105198 C55.4371902,56.5315771 56.5272,54.6121057 57.8595512,53.9460264 L69.1674146,48.286467 C70.5002927,47.6193304 71.5903024,48.4471718 71.5903024,50.1261145 L71.5903024,64.3685815 C71.5903024,66.0469956 70.5002927,67.9654097 69.1674146,68.6325463 L69.1674146,68.6325463 L69.1674146,68.6325463 Z" id="ds-Stroke-45" fill="#4A4A4A"></path>
            <path class="cube cubefill" d="M105.064402,95.8814802 L93.7565385,101.539454 C92.4241873,102.207119 91.3341776,101.379278 91.3341776,99.7008634 L91.3341776,85.4583965 C91.3341776,83.7794537 92.4241873,81.8610396 93.7565385,81.1939031 L105.064402,75.5354009 C106.39728,74.8682643 107.48729,75.6961057 107.48729,77.3745198 L107.48729,91.6169868 C107.48729,93.2954009 106.39728,95.2143436 105.064402,95.8814802 L105.064402,95.8814802 Z" id="ds-Fill-47" fill="#4A4A4A"></path>
            <path class="cube cubefill" d="M105.064402,95.8814802 L93.7565385,101.539454 C92.4241873,102.207119 91.3341776,101.379278 91.3341776,99.7008634 L91.3341776,85.4583965 C91.3341776,83.7794537 92.4241873,81.8610396 93.7565385,81.1939031 L105.064402,75.5354009 C106.39728,74.8682643 107.48729,75.6961057 107.48729,77.3745198 L107.48729,91.6169868 C107.48729,93.2954009 106.39728,95.2143436 105.064402,95.8814802 L105.064402,95.8814802 L105.064402,95.8814802 Z" id="ds-Stroke-49"></path>
            <path class="cube cubefill" d="M37.9571005,42.4174097 L49.5505054,36.6003172 C50.9171005,35.915207 50.9171005,34.7934449 49.5505054,34.1083348 L37.9571005,28.2912423 C36.5905054,27.6056035 34.3551688,27.6056035 32.9880468,28.2912423 L21.394642,34.1083348 C20.02752,34.7934449 20.02752,35.915207 21.394642,36.6003172 L32.9880468,42.4174097 C34.3551688,43.1030485 36.5905054,43.1030485 37.9571005,42.4174097 L37.9571005,42.4174097 Z" id="ds-Stroke-51" fill="#4A4A4A"></path>
            <path class="cube cubefill" d="M19.5541112,33.1847048 L31.1480429,27.3676123 C32.514638,26.6819736 32.514638,25.5607401 31.1480429,24.8751013 L19.5541112,19.0585374 C18.1880429,18.3728987 15.9521795,18.3728987 14.5850576,19.0585374 L2.99165268,24.8751013 C1.62558439,25.5607401 1.62558439,26.6819736 2.99165268,27.3676123 L14.5850576,33.1847048 C15.9521795,33.869815 18.1880429,33.869815 19.5541112,33.1847048 L19.5541112,33.1847048 L19.5541112,33.1847048 Z" id="ds-Stroke-53" fill="#4A4A4A"></path>
            <path class="cube cubefill" d="M74.7623415,42.4174097 L86.3557463,36.6003172 C87.7223415,35.915207 87.7223415,34.7934449 86.3557463,34.1083348 L74.7623415,28.2912423 C73.3957463,27.6056035 71.1604098,27.6056035 69.7932878,28.2912423 L58.2004098,34.1083348 C56.832761,34.7934449 56.832761,35.915207 58.2004098,36.6003172 L69.7932878,42.4174097 C71.1604098,43.1030485 73.3957463,43.1030485 74.7623415,42.4174097 L74.7623415,42.4174097 Z" id="ds-Stroke-55" fill="#4A4A4A"></path>
            <path class="cube cubefill" d="M56.3593522,33.1847048 L67.9532839,27.3676123 C69.3193522,26.6819736 69.3193522,25.5607401 67.9532839,24.8751013 L56.3593522,19.0585374 C54.9927571,18.3728987 52.7579473,18.3728987 51.3902985,19.0585374 L39.7974205,24.8751013 C38.4308254,25.5607401 38.4308254,26.6819736 39.7974205,27.3676123 L51.3902985,33.1847048 C52.7579473,33.869815 54.9927571,33.869815 56.3593522,33.1847048 L56.3593522,33.1847048 L56.3593522,33.1847048 Z" id="ds-Stroke-57" fill="#4A4A4A"></path>
            <path class="cube cubefill" d="M37.9571005,23.9514185 L49.5505054,18.1353833 C50.9171005,17.4492159 50.9171005,16.3279824 49.5505054,15.6423436 L37.9571005,9.82577974 C36.5905054,9.13961233 34.3551688,9.13961233 32.9880468,9.82577974 L21.394642,15.6423436 C20.02752,16.3279824 20.02752,17.4492159 21.394642,18.1353833 L32.9880468,23.9514185 C34.3551688,24.6370573 36.5905054,24.6370573 37.9571005,23.9514185 L37.9571005,23.9514185 L37.9571005,23.9514185 Z" id="ds-Stroke-59" fill="#4A4A4A"></path>
            <path class="cube cubefill" d="M93.1654361,33.1847048 L104.758841,27.3676123 C106.125436,26.6819736 106.125436,25.5607401 104.758841,24.8751013 L93.1654361,19.0585374 C91.7977873,18.3728987 89.5624507,18.3728987 88.1963824,19.0585374 L76.6029776,24.8751013 C75.2358556,25.5607401 75.2358556,26.6819736 76.6029776,27.3676123 L88.1963824,33.1847048 C89.5624507,33.869815 91.7977873,33.869815 93.1654361,33.1847048" id="ds-Fill-61" fill="#4A4A4A"></path>
            <path class="cube cubefill" d="M93.1654361,33.1847048 L104.758841,27.3676123 C106.125436,26.6819736 106.125436,25.5607401 104.758841,24.8751013 L93.1654361,19.0585374 C91.7977873,18.3728987 89.5624507,18.3728987 88.1963824,19.0585374 L76.6029776,24.8751013 C75.2358556,25.5607401 75.2358556,26.6819736 76.6029776,27.3676123 L88.1963824,33.1847048 C89.5624507,33.869815 91.7977873,33.869815 93.1654361,33.1847048 L93.1654361,33.1847048 Z" id="ds-Stroke-63"></path>
            <path class="cube cubefill" d="M74.7623415,23.9514185 L86.3557463,18.1353833 C87.7223415,17.4492159 87.7223415,16.3279824 86.3557463,15.6423436 L74.7623415,9.82577974 C73.3957463,9.13961233 71.1604098,9.13961233 69.7932878,9.82577974 L58.2004098,15.6423436 C56.832761,16.3279824 56.832761,17.4492159 58.2004098,18.1353833 L69.7932878,23.9514185 C71.1604098,24.6370573 73.3957463,24.6370573 74.7623415,23.9514185 L74.7623415,23.9514185 L74.7623415,23.9514185 Z" id="ds-Stroke-65" fill="#4A4A4A"></path>
            <path class="cube cubefill" d="M56.3593522,14.7186608 L67.9532839,8.90209692 C69.3193522,8.21645815 69.3193522,7.09522467 67.9532839,6.40905727 L56.3593522,0.592493392 C54.9927571,-0.0931453744 52.7579473,-0.0931453744 51.3902985,0.592493392 L39.7974205,6.40905727 C38.4308254,7.09522467 38.4308254,8.21645815 39.7974205,8.90209692 L51.3902985,14.7186608 C52.7579473,15.4048282 54.9927571,15.4048282 56.3593522,14.7186608 L56.3593522,14.7186608 L56.3593522,14.7186608 Z" id="ds-Stroke-67" fill="#4A4A4A"></path>
            <path class="cube cubefill" d="M56.3593522,51.6507489 L67.9532839,45.8336564 C69.3193522,45.1480176 69.3193522,44.0262555 67.9532839,43.3411454 L56.3593522,37.5240529 C54.9927571,36.8389427 52.7579473,36.8389427 51.3902985,37.5240529 L39.7974205,43.3411454 C38.4308254,44.0262555 38.4308254,45.1480176 39.7974205,45.8336564 L51.3902985,51.6507489 C52.7579473,52.335859 54.9927571,52.335859 56.3593522,51.6507489 L56.3593522,51.6507489 L56.3593522,51.6507489 Z" id="ds-Stroke-69" fill="#4A4A4A"></path>
            <path class="cube cubefill" d="M2.68614439,95.8814802 L13.9940078,101.539982 C15.326359,102.207119 16.4163688,101.379278 16.4163688,99.7008634 L16.4163688,85.4583965 C16.4163688,83.7794537 15.326359,81.8610396 13.9940078,81.1939031 L2.68614439,75.5354009 C1.35273951,74.8682643 0.263256585,75.6961057 0.263256585,77.3745198 L0.263256585,91.6169868 C0.263256585,93.2954009 1.35273951,95.213815 2.68614439,95.8814802 L2.68614439,95.8814802 Z" id="ds-Stroke-71" fill="#4A4A4A"></path>
        </g>
    </g>
</svg>
