<?xml version="1.0" encoding="iso-8859-1"?>
<!-- Generator: Adobe Illustrator 19.1.0, SVG Export Plug-In . SVG Version: 6.00 Build 0)  -->
<svg xmlns="http://www.w3.org/2000/svg" xmlns:xlink="http://www.w3.org/1999/xlink" version="1.1" id="Capa_1" x="0px" y="0px" viewBox="0 0 63.545 63.545" style="enable-background:new 0 0 63.545 63.545;" xml:space="preserve" width="512px" height="512px">
<g>
	<g id="group-7svg">
		<path id="path-1_37_" d="M31.66,30.626c-3.249,0-5.892-2.644-5.892-5.895s2.643-5.895,5.892-5.895c3.248,0,5.89,2.644,5.89,5.895    S34.909,30.626,31.66,30.626z M31.66,21.838c-1.595,0-2.892,1.298-2.892,2.893s1.297,2.893,2.892,2.893    c1.593,0,2.89-1.298,2.89-2.893S33.253,21.838,31.66,21.838z" fill="#cccccc"/>
		<path id="path-2_37_" d="M31.66,43.378c-3.249,0-5.892-2.644-5.892-5.895c0-3.25,2.643-5.895,5.892-5.895    c3.248,0,5.89,2.645,5.89,5.895C37.55,40.734,34.909,43.378,31.66,43.378z M31.66,34.59c-1.595,0-2.892,1.298-2.892,2.893    c0,1.595,1.297,2.893,2.892,2.893c1.593,0,2.89-1.298,2.89-2.893C34.55,35.888,33.253,34.59,31.66,34.59z" fill="#cccccc"/>
		<path id="path-3_35_" d="M45.272,43.531c0,3.04-2.463,5.504-5.5,5.504h-16c-3.037,0-5.5-2.464-5.5-5.504V5.504    c0-3.039,2.463-5.504,5.5-5.504h16c3.037,0,5.5,2.465,5.5,5.504V43.531z M42.272,5.504c0-1.382-1.119-2.502-2.5-2.502h-16    c-1.381,0-2.5,1.12-2.5,2.502v38.027c0,1.382,1.119,2.502,2.5,2.502h16c1.381,0,2.5-1.12,2.5-2.502V5.504z" fill="#cccccc"/>
		<path id="path-4_33_" d="M31.66,17.873c-3.249,0-5.892-2.644-5.892-5.894c0-3.251,2.643-5.896,5.892-5.896    c3.248,0,5.89,2.645,5.89,5.896C37.55,15.229,34.909,17.873,31.66,17.873z M31.66,9.085c-1.595,0-2.892,1.298-2.892,2.894    c0,1.595,1.297,2.892,2.892,2.892c1.593,0,2.89-1.297,2.89-2.892C34.55,10.383,33.253,9.085,31.66,9.085z" fill="#cccccc"/>
		<path id="path-5_30_" d="M31.66,30.626c-3.249,0-5.892-2.644-5.892-5.895s2.643-5.895,5.892-5.895c3.248,0,5.89,2.644,5.89,5.895    S34.909,30.626,31.66,30.626z M31.66,21.838c-1.595,0-2.892,1.298-2.892,2.893s1.297,2.893,2.892,2.893    c1.593,0,2.89-1.298,2.89-2.893S33.253,21.838,31.66,21.838z" fill="#cccccc"/>
		<path id="path-6_25_" d="M31.772,63.545c-1.381,0-2.5-1.12-2.5-2.501V49.035c0-1.382,1.119-2.502,2.5-2.502    c1.381,0,2.5,1.12,2.5,2.502v12.009C34.272,62.425,33.153,63.545,31.772,63.545z" fill="#cccccc"/>
	</g>
</g>
<g>
</g>
<g>
</g>
<g>
</g>
<g>
</g>
<g>
</g>
<g>
</g>
<g>
</g>
<g>
</g>
<g>
</g>
<g>
</g>
<g>
</g>
<g>
</g>
<g>
</g>
<g>
</g>
<g>
</g>
</svg>
